<svg width="16" height="12" viewBox="0 0 16 12" fill="none" xmlns="http://www.w3.org/2000/svg">
<path d="M15.6535 3.62979H14.48C14.3907 3.62979 14.3048 3.66433 14.2403 3.72614L13.9898 3.9661C13.5675 2.98911 12.9618 2.02297 12.1436 1.02274C11.7013 0.482292 11.0473 0.172363 10.349 0.172363H5.65095C4.9526 0.172363 4.29854 0.482329 3.85651 1.02278C3.01251 2.05447 2.41881 2.99734 2.00657 3.96266L1.75979 3.72614C1.69527 3.66433 1.60934 3.62979 1.51996 3.62979H0.346577C0.15515 3.62979 0 3.78494 0 3.97637V4.77865C0 4.96159 0.142218 5.11296 0.324788 5.12452L1.5309 5.20049C1.34866 5.733 1.20637 6.52654 1.20637 7.64564C1.20637 8.61667 1.40031 9.25487 1.73785 9.66804V11.5374C1.73785 11.6977 1.8678 11.8276 2.0281 11.8276H3.36316C3.52354 11.8276 3.65353 11.6977 3.65353 11.5374V10.3766H12.3465V11.5374C12.3465 11.6977 12.4765 11.8276 12.6368 11.8276H13.9719C14.1322 11.8276 14.2622 11.6977 14.2622 11.5374V9.66804C14.5996 9.25487 14.7937 8.61667 14.7937 7.64564C14.7937 6.52654 14.6514 5.733 14.4691 5.20049L15.6752 5.12452C15.8578 5.11296 16 4.96159 16 4.77865V3.97637C16 3.78494 15.8449 3.62979 15.6535 3.62979ZM4.84703 1.83306C5.04513 1.59095 5.33816 1.45203 5.65095 1.45203H10.349C10.6618 1.45203 10.9549 1.59095 11.153 1.83306C11.7254 2.53278 12.1774 3.2024 12.5268 3.86943L3.46521 3.87113C3.80693 3.21892 4.26153 2.54875 4.84703 1.83306ZM3.85955 8.95695C3.19504 8.95695 2.65641 8.73992 2.65641 8.2134C2.65641 7.68692 2.85184 7.26001 3.51631 7.26001C4.18078 7.26001 5.06262 7.68692 5.06262 8.2134C5.06262 8.73988 4.52395 8.95695 3.85955 8.95695ZM9.26119 8.84723H6.73888C6.35862 8.84723 6.04929 8.53789 6.04929 8.15767C6.04929 8.05103 6.13577 7.96454 6.24249 7.96454H9.75765C9.86434 7.96454 9.95075 8.05103 9.95075 8.15767C9.95075 8.53793 9.64141 8.84723 9.26119 8.84723ZM12.1405 8.95695C11.476 8.95695 10.9373 8.73992 10.9373 8.2134C10.9373 7.68692 11.8193 7.26001 12.4837 7.26001C13.1481 7.26001 13.3436 7.68692 13.3436 8.2134C13.3436 8.73988 12.805 8.95695 12.1405 8.95695Z" fill="#9E7B56"/>
</svg>
