<svg width="98" height="62" viewBox="0 0 98 62" fill="none" xmlns="http://www.w3.org/2000/svg">
<g clip-path="url(#clip0)">
<path d="M28.0752 38.9252C28.0051 38.7271 28.017 38.514 28.1088 38.3227C28.2006 38.1313 28.3666 37.9736 28.5783 37.8768L25.5429 37.798C25.8927 37.9468 26.1774 38.436 26.0343 38.8664C25.9115 39.2418 23.4557 45.7664 22.7908 47.5381C20.4478 45.3986 18.3186 42.8638 17.5728 41.6978L20.2931 38.8314C20.8192 38.2872 21.779 37.7392 22.2748 37.5277L19.4027 37.3888C19.7525 37.5377 19.9129 38.0482 19.647 38.3322L15.0549 43.2792V37.8993C15.0685 37.7342 15.1283 37.5743 15.229 37.4336C15.3297 37.2928 15.4683 37.1753 15.633 37.0911L12.7957 36.8233C13.1166 37.001 13.4216 37.3838 13.4216 37.5552V48.4952C13.4216 48.6666 13.118 49.0507 12.7957 49.2271L15.633 48.9694C15.4683 48.8852 15.3297 48.7676 15.229 48.6269C15.1283 48.4861 15.0685 48.3263 15.0549 48.1611V44.3527L16.3341 43.0052C19.2249 46.7949 21.9409 48.9431 25.355 49.9828L25.644 49.8126C24.8933 49.3075 24.1807 48.7613 23.5106 48.1774L24.6164 45.0983L28.8616 44.9732L29.8921 47.5118C30.0063 47.8608 29.658 48.2625 29.3357 48.4351L32.1239 48.3163C31.8604 48.0899 31.6623 47.813 31.5457 47.508C31.5457 47.508 28.1938 39.2756 28.0752 38.9252ZM24.878 44.3602L26.6298 39.4807L28.5652 44.2501L24.878 44.3602ZM45.6574 61.6071L42.8084 61.6534C42.9981 61.5516 43.1426 61.3974 43.2186 61.2158C43.2947 61.0343 43.2978 60.8358 43.2276 60.6525L40.2948 53.6861L37.5355 60.68C37.4671 60.8797 37.4773 61.0935 37.5647 61.2877C37.6522 61.4818 37.8117 61.6452 38.0183 61.7522L35.8863 61.851C36.1985 61.6108 36.2881 61.4219 36.4645 61.0428C36.4645 61.0428 39.6777 53.0981 39.8236 52.6927C39.879 52.5029 39.8673 52.303 39.7899 52.119C39.7126 51.935 39.5733 51.7753 39.39 51.6605L41.9918 51.568C41.6333 51.7168 41.3833 52.2536 41.5582 52.7153L44.9607 60.7963C45.1255 61.0891 45.3163 61.4582 45.6574 61.6071ZM73.2649 38.8727V47.7558C73.2786 47.9209 73.3383 48.0807 73.439 48.2215C73.5397 48.3623 73.6784 48.4798 73.8431 48.564L71.0057 48.4389C71.3281 48.2612 71.6316 47.8784 71.6316 47.7057V42.2157L67.3821 42.2958V47.4843C67.3957 47.6494 67.4555 47.8092 67.5562 47.95C67.6569 48.0908 67.7955 48.2083 67.9602 48.2925L65.1229 48.2162C65.4452 48.0385 65.7487 47.6557 65.7487 47.4843V38.924C65.7487 38.7526 65.4452 38.3685 65.1229 38.1908L67.9602 38.1158C67.7955 38.1999 67.6569 38.3175 67.5562 38.4582C67.4555 38.599 67.3957 38.7588 67.3821 38.924V41.5639L71.6316 41.4838V38.9377C71.6316 38.7663 71.3281 38.3822 71.0057 38.2058L73.8431 38.0645C73.6786 38.1485 73.54 38.2659 73.4393 38.4064C73.3387 38.5469 73.2788 38.7065 73.2649 38.8714V38.8727ZM85.3805 37.8205V48.5978C85.3941 48.7629 85.4539 48.9227 85.5546 49.0635C85.6553 49.2043 85.7939 49.3218 85.9586 49.406L83.1198 49.1695C83.4407 48.9919 83.7457 48.609 83.7457 48.4364V37.9769C83.7457 37.8055 83.4422 37.4214 83.1198 37.2437L85.9572 37.0135C85.7929 37.0977 85.6547 37.2151 85.5543 37.3556C85.4538 37.4962 85.3942 37.6557 85.3805 37.8205V37.8205ZM97.5567 50.6709L94.7193 50.3056C95.0402 50.1279 95.3452 49.7451 95.3452 49.5724V39.1605C95.1747 39.452 95.0128 39.7085 94.8971 39.8836C93.1626 42.5223 90.7835 46.2644 90.4438 46.9012C89.9939 47.7995 89.6548 48.7364 89.432 49.6963L89.2875 49.6737V49.7163L88.2973 49.6112V37.589C88.2973 37.4176 87.9938 37.0335 87.6715 36.8559L90.5088 36.5756C90.3441 36.6598 90.2055 36.7773 90.1048 36.9181C90.0041 37.0589 89.9443 37.2187 89.9307 37.3838V46.2569C90.6534 45.037 92.7594 41.7441 94.2091 39.5471C94.8494 38.5762 95.2787 37.6941 95.3394 37.2387V36.8333C95.3394 36.6619 95.0359 36.2778 94.7136 36.1002L97.5509 35.7248C97.3862 35.809 97.2476 35.9265 97.1469 36.0673C97.0462 36.2081 96.9864 36.3679 96.9728 36.5331V49.8639C96.9873 50.0293 97.048 50.1892 97.1497 50.3298C97.2514 50.4704 97.3911 50.5874 97.5567 50.6709ZM49.2174 47.9709C50.4221 47.6914 51.4821 47.0675 52.2254 46.2006C53.7199 44.4578 54.0105 42.6198 52.5853 40.633C51.215 38.7338 48.0438 37.8255 45.5027 38.7201C43.4791 39.4344 42.4558 40.7682 42.0409 42.1844C41.6478 43.8847 42.1334 45.4449 43.3129 46.5734C44.7352 47.9384 47.1621 48.4802 49.2174 47.9709ZM43.4358 41.465C43.6873 40.3065 44.4562 39.4345 46.0737 39.1767C47.4482 38.9578 48.5945 39.2693 49.6193 40.0025C51.6125 41.43 52.2297 43.0265 52.062 44.6567C51.8756 45.4074 51.6284 45.8966 51.1832 46.3307C49.9633 47.5043 47.9354 47.6894 46.2139 46.7436C44.913 46.0267 44.2278 45.1259 43.7306 44.0311C43.3468 43.2208 43.2449 42.3311 43.4372 41.4713L43.4358 41.465ZM38.6008 47.8896C37.5785 48.3048 36.4722 48.5428 35.3443 48.5903C34.8833 48.6097 34.4215 48.5726 33.9726 48.4802C33.4739 48.3926 33.0446 48.2149 32.7483 47.8721C32.7295 47.849 32.7214 47.8206 32.7257 47.7925C32.73 47.7644 32.7463 47.7388 32.7714 47.7207C33.1892 47.3842 33.4378 47.2203 33.8656 46.8624C34.0082 47.1109 34.2082 47.3313 34.4534 47.51C34.6986 47.6886 34.9836 47.8217 35.2908 47.9009C35.6623 47.9822 36.7463 48.1586 37.6367 47.5255C38.8682 46.6497 38.8726 44.6479 37.5673 43.8109C36.9111 43.3905 35.9542 43.0878 35.1029 43.2742C34.7849 43.358 34.5016 43.4806 34.3383 43.7559C34.3383 43.2191 34.3383 42.7087 34.3267 42.1869C34.4108 42.3029 34.5204 42.4034 34.6494 42.4826C34.7784 42.5618 34.9241 42.6182 35.0783 42.6486C35.5321 42.6546 35.9849 42.6126 36.4269 42.5235C36.8005 42.4676 37.1434 42.309 37.4048 42.0713C37.6661 41.8336 37.8321 41.5293 37.8781 41.2036C37.9696 40.7595 37.9237 40.3024 37.7451 39.8786C37.3765 39.0891 36.5888 38.5311 35.577 38.5562C35.0789 38.5726 34.5993 38.7235 34.2053 38.9878C33.8251 39.3456 33.5968 39.4107 33.3958 39.9287C33.3958 39.9362 33.3713 39.9387 33.3453 39.9499C33.2874 39.2993 33.3033 38.9703 33.2094 38.3234C33.4068 38.3544 33.6072 38.3686 33.8078 38.366C34.0867 38.3344 34.3626 38.2851 34.6331 38.2183C35.6757 37.9258 36.8054 37.9703 37.8131 38.3435C38.2603 38.5077 38.6644 38.7486 39.0012 39.0516C40.0694 40.0087 40.0347 41.2661 38.887 42.0981C38.536 42.3367 38.1531 42.5379 37.7466 42.6974C38.0877 42.8325 38.3479 42.9239 38.5965 43.034C40.0665 43.6896 40.7791 44.8356 40.4264 46.0905C40.1908 46.9388 39.5057 47.5093 38.6008 47.8896ZM58.0822 44.4252C57.1066 44.4252 54.9269 44.2138 54.9269 41.6415V39.1392C54.9269 38.9678 54.6233 38.5837 54.301 38.406L57.1384 38.3297C56.9736 38.4139 56.835 38.5314 56.7343 38.6722C56.6336 38.813 56.5738 38.9728 56.5602 39.1379V41.5026C56.5602 41.9242 56.7712 43.652 58.7977 43.652C59.6303 43.652 60.1911 43.5081 60.5655 43.3367V39.0604C60.5655 38.889 60.2619 38.5049 59.9396 38.3272L62.777 38.2509C62.6122 38.3351 62.4736 38.4526 62.3729 38.5934C62.2722 38.7341 62.2124 38.894 62.1988 39.0591V47.3429C62.2124 47.508 62.2722 47.6679 62.3729 47.8086C62.4736 47.9494 62.6122 48.0669 62.777 48.1511L59.9396 48.0886C60.2605 47.9109 60.5655 47.528 60.5655 47.3566V43.9886C59.8832 44.2826 59.0825 44.4252 58.0837 44.4252H58.0822ZM77.9727 41.9405V38.3672C77.9863 38.2021 78.0461 38.0423 78.1468 37.9015C78.2475 37.7607 78.3861 37.6432 78.5509 37.559L75.7135 37.7367C76.0358 37.9143 76.3394 38.2972 76.3394 38.4686V47.9397C76.3394 48.1111 76.0358 48.4952 75.7135 48.6728L78.5509 48.8405C78.5321 48.833 78.5162 48.8217 78.4988 48.813C79.2042 48.873 80.1668 48.9518 80.6366 48.9756C81.4287 49.0156 83.0707 48.2337 82.9377 46.1918C82.7888 43.8785 79.3299 42.3971 77.9741 41.9405H77.9727ZM81.17 46.9838C81.0413 47.6094 80.3157 48.29 79.1738 48.2112C78.8529 48.1886 78.3297 48.1436 77.9799 48.1123C77.975 48.0862 77.9721 48.0599 77.9712 48.0335V42.5786C78.6116 42.8863 79.6609 43.4544 80.2695 44.0036C81.5212 45.1246 81.2928 46.3908 81.1714 46.985L81.17 46.9838ZM54.2851 59.7667L55.6409 60.9803C54.1319 62.4053 51.3437 61.9036 50.7337 61.7585C50.0804 61.6034 49.4097 61.5098 48.7332 61.4795C48.0863 61.4708 47.4395 61.4971 46.7964 61.5583C47.0314 61.2238 47.1596 60.8412 47.1678 60.4498V52.2085C47.1678 52.0371 46.8643 51.653 46.542 51.4766L52.9134 51.4841C53.1816 51.4961 53.4461 51.4262 53.6607 51.2865L54.6826 52.9354L54.4542 53.0606C54.4542 53.0606 53.6462 52.1848 51.9551 52.1848H48.8387C48.8387 52.1935 48.8387 52.2023 48.8387 52.211V54.8497H51.3046C51.6314 54.8553 51.9541 54.7863 52.2403 54.6497C52.5265 54.5131 52.7661 54.3137 52.9351 54.0715V56.2472C52.6604 55.9832 52.0678 55.5078 51.3046 55.5078H48.8359V60.8051C49.1922 60.8034 49.5481 60.8277 49.8997 60.8777C50.235 60.9177 51.9421 61.0753 52.8715 60.9039C53.8009 60.7325 54.0741 60.1895 54.288 59.7667H54.2851ZM64.2889 57.8899C64.2889 57.8899 64.987 58.6131 64.8092 59.3075C64.7138 59.6828 64.3871 59.9668 64.1038 60.1532C63.8747 60.6482 63.4933 61.0794 63.001 61.3999C62.5086 61.7204 61.9242 61.9179 61.3113 61.9712C60.0928 62.0963 58.7818 61.8385 57.5778 60.5861C56.3737 59.3338 55.4212 57.153 56.2335 54.5907C57.0646 51.9633 59.7777 51.4441 60.8704 51.4178C61.6038 51.4069 62.3296 51.5472 62.988 51.8269C63.3378 51.9846 63.7353 52.1297 64.1154 52.0772L64.2527 52.2623L62.472 53.6736C62.3506 53.2645 61.9545 52.1723 60.4758 52.1723C58.9972 52.1723 58.1906 52.8454 57.8466 54.2767C57.3335 56.4211 57.8191 58.5155 58.8295 59.7441C59.6968 60.8001 60.5062 61.1291 61.4659 61.1692C62.2609 61.2017 62.9519 60.9189 63.4693 60.1795C63.2756 59.9118 63.014 59.4439 63.1311 58.9872C63.3074 58.2903 64.2932 57.8887 64.2932 57.8887L64.2889 57.8899ZM91.3804 35.7449C91.3804 35.7449 91.1058 34.3836 91.9109 33.4303C92.716 32.4769 94.2987 32.293 94.2987 32.293C94.2987 32.293 94.5734 33.6542 93.7683 34.6076C92.9632 35.5609 91.3833 35.7474 91.3833 35.7474L91.3804 35.7449ZM19.1454 49.5511C19.1454 49.5511 18.7263 50.8561 17.5453 51.4203C16.7692 51.7957 15.8585 51.7506 15.3237 51.6793C14.3249 52.126 12.2103 52.6802 10.0609 52.6802C7.41727 52.6802 5.07135 52.0547 3.07378 49.7551C1.1875 47.5818 -0.152405 43.1854 1.48381 38.8026C3.30071 33.9507 7.2814 33.0474 9.2255 33.0474C12.0571 33.0474 12.1987 34.1484 14.3264 34.256L14.4348 34.4662L12.0383 36.433C11.9039 35.6648 11.2187 33.8056 9.12142 33.8056C7.02411 33.8056 5.09014 35.3658 4.13327 37.9894C3.0651 40.9196 3.36141 44.9382 5.03955 47.8646C6.33176 50.1166 8.166 51.1301 9.84703 51.5517C10.8935 51.8132 12.9489 51.8407 14.9812 51.314C15.1749 50.8974 15.6287 50.1279 16.4656 49.7288C17.6422 49.162 19.1454 49.5511 19.1454 49.5511Z" fill="#D2B887"/>
<path d="M54.0028 1.75904C54.3784 1.77517 54.7385 1.89337 55.0319 2.09684C54.7484 2.31459 54.3826 2.43485 54.0035 2.43485C53.6245 2.43485 53.2586 2.31459 52.9751 2.09684C53.2682 1.89362 53.6278 1.77543 54.0028 1.75904ZM56.5178 3.22912C56.5178 3.22912 56.645 2.77621 56.3979 2.44466C56.1507 2.11311 55.6217 2.02678 55.6217 2.02678C55.6217 2.02678 55.4945 2.47969 55.7417 2.81124C55.9888 3.14279 56.5178 3.22912 56.5178 3.22912ZM53.6602 2.80874C53.4423 2.9398 53.285 3.13353 53.2165 3.35549C53.3426 3.39326 53.4767 3.40699 53.6096 3.39574C53.7424 3.38449 53.8709 3.34852 53.9862 3.2903C54.1015 3.23208 54.2009 3.15299 54.2776 3.05842C54.3543 2.96386 54.4065 2.85607 54.4307 2.74243C54.173 2.68474 53.9001 2.70778 53.6602 2.80749V2.80874ZM49.152 2.56727C49.6521 2.73992 50.2158 2.53974 50.2158 2.53974C50.2158 2.53974 49.9657 2.05806 49.4656 1.8854C48.9655 1.71275 48.4018 1.91293 48.4018 1.91293C48.4018 1.91293 48.6519 2.39461 49.152 2.56727ZM46.6037 2.83376C46.6325 2.57731 46.5607 2.31993 46.3999 2.1031C46.2779 2.17762 46.1743 2.27245 46.0952 2.38204C46.016 2.49163 45.9629 2.61378 45.939 2.74134C45.915 2.8689 45.9207 2.99932 45.9557 3.12497C45.9906 3.25061 46.0542 3.36896 46.1426 3.47309C46.3746 3.31113 46.5369 3.08642 46.6037 2.83501V2.83376ZM45.4474 2.56977C45.4474 2.56977 45.7639 2.17191 45.6801 1.75153C45.5962 1.33115 45.1467 1.04964 45.1467 1.04964C45.1467 1.04964 44.8302 1.4475 44.914 1.86788C44.9978 2.28827 45.4474 2.56977 45.4474 2.56977ZM45.2493 4.02109C45.3886 3.75943 45.4041 3.46102 45.2925 3.1896C45.181 2.91818 44.9512 2.69528 44.6524 2.56852C44.5131 2.83018 44.4976 3.12859 44.6092 3.40001C44.7207 3.67143 44.9505 3.89433 45.2493 4.02109V4.02109ZM46.7959 4.92316C46.8067 4.80259 46.7885 4.6814 46.7425 4.56722C46.6965 4.45304 46.6237 4.34834 46.5287 4.25972C46.4336 4.1711 46.3184 4.10048 46.1902 4.0523C46.0621 4.00413 45.9238 3.97944 45.7841 3.9798C45.7734 4.10036 45.7915 4.22156 45.8375 4.33574C45.8835 4.44992 45.9564 4.55462 46.0514 4.64324C46.1465 4.73186 46.2617 4.80248 46.3898 4.85065C46.518 4.89883 46.6562 4.92352 46.7959 4.92316V4.92316ZM44.1638 3.24413C44.1746 3.12357 44.1564 3.00238 44.1104 2.8882C44.0644 2.77402 43.9916 2.66932 43.8966 2.5807C43.8015 2.49208 43.6863 2.42145 43.5581 2.37328C43.43 2.3251 43.2917 2.30042 43.152 2.30078C43.1412 2.42134 43.1594 2.54253 43.2054 2.65671C43.2514 2.77089 43.3242 2.87559 43.4193 2.96421C43.5143 3.05283 43.6296 3.12346 43.7577 3.17163C43.8858 3.21981 44.0241 3.24449 44.1638 3.24413V3.24413ZM43.7808 4.17498C44.2144 4.29383 44.6784 4.07989 44.6784 4.07989C44.6784 4.07989 44.4385 3.67452 44.0034 3.55692C43.5683 3.43931 43.1058 3.652 43.1058 3.652C43.1058 3.652 43.3457 4.05737 43.7808 4.17498ZM45.5615 6.63971C45.6637 6.52675 45.7382 6.39691 45.7804 6.25815C45.8225 6.1194 45.8315 5.97465 45.8067 5.83278C45.782 5.69091 45.724 5.55492 45.6363 5.43314C45.5487 5.31136 45.4332 5.20636 45.297 5.12459C45.1946 5.23748 45.12 5.36731 45.0777 5.5061C45.0354 5.64488 45.0264 5.78969 45.0512 5.93161C45.076 6.07353 45.134 6.20956 45.2218 6.33134C45.3096 6.45311 45.4252 6.55806 45.5615 6.63971V6.63971ZM46.2207 7.14017C46.1856 7.37716 46.2398 7.61762 46.3753 7.82579C46.5982 7.68102 46.7497 7.46875 46.7996 7.23145C46.8494 6.99414 46.7939 6.74929 46.6442 6.54588C46.4331 6.69961 46.2847 6.90793 46.2207 7.14017V7.14017ZM46.663 8.17861C46.5678 8.41691 46.5678 8.67597 46.663 8.91428C46.7977 8.8667 46.9202 8.79649 47.0234 8.7077C47.1266 8.61891 47.2085 8.51329 47.2642 8.39696C47.32 8.28063 47.3486 8.15588 47.3484 8.02993C47.3481 7.90397 47.319 7.77931 47.2628 7.66314C46.9998 7.77266 46.787 7.95553 46.6586 8.18236L46.663 8.17861ZM52.0688 10.7459C52.0255 11.1963 52.4172 11.593 52.4172 11.593C52.4172 11.593 52.8783 11.2577 52.9216 10.806C52.965 10.3543 52.5733 9.95897 52.5733 9.95897C52.5733 9.95897 52.1122 10.2943 52.0674 10.7459H52.0688ZM55.6809 8.51141C55.6866 8.23456 55.5848 7.96407 55.3919 7.74322C55.269 7.83221 55.1676 7.9414 55.0938 8.06448C55.0199 8.18756 54.975 8.32209 54.9615 8.4603C54.9481 8.59851 54.9664 8.73765 55.0155 8.86969C55.0645 9.00173 55.1433 9.12404 55.2473 9.22956C55.4805 9.03885 55.6332 8.78602 55.6809 8.51141ZM55.4627 5.89404C55.2146 5.71973 54.9062 5.62238 54.5868 5.61754C54.5925 5.75607 54.6299 5.89225 54.6968 6.01821C54.7637 6.14417 54.8587 6.25741 54.9765 6.3514C55.0942 6.44539 55.2323 6.51826 55.3827 6.56581C55.5331 6.61337 55.6929 6.63466 55.8529 6.62845C55.8211 6.35284 55.6837 6.09434 55.4627 5.89404ZM54.2514 5.83648C54.25 5.55987 54.1416 5.29164 53.9435 5.07454C53.8233 5.16619 53.7252 5.27755 53.655 5.40219C53.5848 5.52683 53.5438 5.66228 53.5344 5.80071C53.525 5.93915 53.5473 6.07782 53.6002 6.20873C53.6531 6.33963 53.7354 6.46018 53.8424 6.56339C54.0685 6.36735 54.2125 6.11149 54.2514 5.83648V5.83648ZM58.0297 6.01665C57.6679 6.02642 57.3214 6.14589 57.0509 6.3542C56.7804 6.56252 56.603 6.84645 56.5496 7.15643C56.9115 7.14666 57.258 7.02719 57.5285 6.81887C57.799 6.61056 57.9764 6.32663 58.0297 6.01665V6.01665ZM56.6494 7.85331C56.5048 8.12356 56.6696 8.45636 56.6696 8.45636C56.6696 8.45636 57.0714 8.35127 57.2174 8.08102C57.3634 7.81078 57.1972 7.47797 57.1972 7.47797C57.1972 7.47797 56.7954 7.58307 56.6494 7.85331ZM59.5156 4.86685C59.5933 4.61425 59.5777 4.34692 59.4708 4.10241C59.2089 4.23755 59.0128 4.45072 58.9195 4.702C58.8261 4.95327 58.8417 5.2254 58.9635 5.4674C59.2154 5.32256 59.4086 5.11296 59.5156 4.86811V4.86685ZM60.6416 4.5866C60.8178 4.41958 60.9144 4.20097 60.9119 3.97479C60.9119 3.97479 60.4451 3.95478 60.1632 4.17998C59.9874 4.34713 59.8913 4.56575 59.8943 4.79179C59.8943 4.79179 60.3612 4.81181 60.6416 4.5866ZM60.3207 6.09672C60.2802 6.32003 60.3385 6.54837 60.4841 6.73605C60.4841 6.73605 60.8859 6.52961 60.977 6.20682C61.0176 5.98311 60.9593 5.75436 60.8136 5.56624C60.8136 5.56624 60.4118 5.77268 60.3207 6.09547V6.09672ZM61.8312 8.54644C61.8312 8.54644 61.9165 8.94305 62.2359 9.12822C62.4645 9.23782 62.7324 9.26865 62.9861 9.21455C62.9861 9.21455 62.9008 8.81669 62.5814 8.63277C62.3528 8.52317 62.0849 8.49234 61.8312 8.54644V8.54644ZM63.1914 10.3531C63.6004 10.3981 63.9661 10.0953 63.9661 10.0953C63.9661 10.0953 63.6669 9.72001 63.2578 9.67622C62.8488 9.63243 62.4831 9.93395 62.4831 9.93395C62.4831 9.93395 62.7823 10.3093 63.1914 10.3531ZM64.1077 10.8848C63.9045 10.7583 63.6538 10.7025 63.4053 10.7284C63.4053 10.7284 63.4371 11.1138 63.7175 11.3202C63.9207 11.4468 64.1714 11.5026 64.42 11.4766C64.42 11.4766 64.3882 11.0913 64.1077 10.8848ZM58.1887 10.4757C57.8815 10.3493 57.5364 10.309 57.2015 10.3606C56.8857 10.4411 56.6106 10.6117 56.421 10.8448C56.7282 10.9713 57.0733 11.0115 57.4082 10.9599C57.7241 10.8794 57.9992 10.7087 58.1887 10.4757V10.4757ZM57.7175 13.6373C58.261 13.6961 58.7293 13.3721 58.7293 13.3721C58.7293 13.3721 58.3217 12.9517 57.7782 12.8929C57.2348 12.8341 56.7665 13.1581 56.7665 13.1581C56.7665 13.1581 57.1741 13.5785 57.7175 13.6373ZM58.3839 11.588C58.6765 11.5139 58.9313 11.356 59.1066 11.14C58.8232 11.0235 58.5049 10.9863 58.196 11.0337C57.9035 11.1079 57.6487 11.2658 57.4733 11.4816C57.7566 11.5983 58.075 11.6355 58.3839 11.588V11.588ZM59.335 12.3023C59.6239 12.314 59.9085 12.2384 60.1401 12.0884C59.9341 11.9011 59.664 11.7761 59.3696 11.7318C59.0807 11.7201 58.7961 11.7957 58.5646 11.9458C58.7703 12.1324 59.0399 12.257 59.3335 12.3011L59.335 12.3023ZM62.5958 12.8428C62.3374 12.9894 62.1481 13.2114 62.0625 13.4684C62.0625 13.4684 62.5872 13.5785 62.9919 13.3808C63.251 13.2345 63.4408 13.0125 63.5267 12.7553C63.5267 12.7553 63.002 12.6452 62.5973 12.8428H62.5958ZM60.5014 13.7824C59.9811 13.9138 59.7007 14.3755 59.7007 14.3755C59.7007 14.3755 60.2644 14.6257 60.7847 14.4918C61.3051 14.358 61.5855 13.8988 61.5855 13.8988C61.5855 13.8988 61.0218 13.6486 60.5014 13.7824ZM62.4788 14.6107C62.7855 14.5171 63.0458 14.3351 63.2159 14.0952C62.9079 13.9793 62.5653 13.9509 62.2374 14.0139C61.9306 14.1075 61.6704 14.2895 61.5002 14.5294C61.8083 14.6453 62.1508 14.6737 62.4788 14.6107V14.6107ZM63.3316 14.8997C63.0652 14.8722 62.7965 14.932 62.5785 15.0674C62.5785 15.0674 62.843 15.4102 63.2304 15.4777C63.4963 15.5049 63.7644 15.4451 63.982 15.3101C63.982 15.3101 63.7175 14.9673 63.3301 14.8997H63.3316ZM62.9745 16.1221C62.9861 16.3383 63.0848 16.5441 63.2535 16.7038C63.4463 16.8322 63.6878 16.8929 63.93 16.874C63.9184 16.6578 63.8197 16.452 63.651 16.2922C63.4582 16.164 63.2167 16.1033 62.9745 16.1221ZM61.798 16.59C61.6216 16.9153 61.8211 17.3031 61.8211 17.3031C61.8211 17.3031 62.3068 17.1643 62.4845 16.839C62.6623 16.5137 62.4614 16.1258 62.4614 16.1258C62.4614 16.1258 61.9758 16.2647 61.798 16.59ZM57.5036 15.1049C57.5036 15.1049 56.8994 15.1825 56.5728 15.5403C56.2461 15.8981 56.3198 16.3998 56.3198 16.3998C56.3198 16.3998 56.924 16.3222 57.2507 15.9644C57.5773 15.6066 57.5022 15.1049 57.5022 15.1049H57.5036ZM60.9567 16.0583C60.7395 16.1339 60.561 16.2747 60.4537 16.4549C60.6734 16.5412 60.9202 16.5615 61.1548 16.5124C61.372 16.4367 61.5505 16.296 61.6578 16.1158C61.4381 16.0294 61.1913 16.0092 60.9567 16.0583ZM55.0609 16.1033C55.3009 16.1083 55.5361 16.0436 55.7286 15.9194C55.8957 15.7765 55.9983 15.5865 56.0177 15.3839C55.7776 15.3787 55.5425 15.4435 55.3499 15.5678C55.1825 15.711 55.08 15.9015 55.0609 16.1045V16.1033ZM60.2282 12.8791C60.0573 12.7357 59.84 12.6406 59.6053 12.6064C59.3751 12.5935 59.1465 12.6467 58.9548 12.7578C59.1258 12.9012 59.343 12.9963 59.5778 13.0305C59.8079 13.0434 60.0366 12.9902 60.2282 12.8791V12.8791ZM58.514 8.18236C58.7996 8.09359 59.0448 7.92782 59.2135 7.70943C59.3459 7.48166 59.3827 7.22117 59.3176 6.97252C59.032 7.06137 58.7868 7.22712 58.618 7.44545C58.4861 7.67334 58.4498 7.93386 58.5154 8.18236H58.514ZM59.8842 9.61741C60.1512 9.56056 60.3851 9.42132 60.5419 9.22581C60.3045 9.09183 60.0219 9.03101 59.7397 9.05315C59.4727 9.11011 59.2389 9.24933 59.082 9.44476C59.3193 9.57882 59.602 9.63966 59.8842 9.61741V9.61741ZM58.1974 8.64528C57.9126 8.82923 57.7062 9.0897 57.6106 9.38595C57.9774 9.40751 58.343 9.33156 58.6585 9.16826C58.9429 8.98418 59.1487 8.72371 59.2439 8.42758C58.8776 8.40636 58.5126 8.48231 58.1974 8.64528ZM60.2311 5.37106C60.2311 5.37106 59.64 5.38482 59.2569 5.6926C59.0177 5.90776 58.8721 6.18811 58.845 6.48582C58.845 6.48582 59.4376 6.47206 59.8192 6.16428C60.0585 5.94918 60.2042 5.6688 60.2311 5.37106V5.37106ZM43.4989 8.91803C43.4782 9.16952 43.5555 9.41976 43.7186 9.62867C43.8356 9.55297 43.9341 9.45788 44.0082 9.34894C44.0824 9.23999 44.1308 9.11936 44.1505 8.99408C44.1703 8.86879 44.1611 8.74135 44.1234 8.61918C44.0858 8.49701 44.0204 8.38255 43.9311 8.28245C43.7082 8.44612 43.5554 8.67002 43.4975 8.91803H43.4989ZM40.306 6.10798C40.3727 5.99545 40.4129 5.87256 40.4243 5.74646C40.4357 5.62036 40.418 5.49355 40.3723 5.37342C40.3265 5.25329 40.2537 5.14222 40.1579 5.04666C40.0622 4.95111 39.9455 4.87298 39.8145 4.81681C39.7478 4.92934 39.7076 5.05223 39.6962 5.17833C39.6849 5.30443 39.7025 5.43123 39.7483 5.55137C39.794 5.6715 39.8669 5.78257 39.9626 5.87812C40.0583 5.97368 40.1751 6.05181 40.306 6.10798V6.10798ZM38.5715 9.00061C38.5715 9.00061 38.5715 8.47513 38.2072 8.12481C37.9442 7.90425 37.6031 7.76675 37.2388 7.73446C37.2388 7.73446 37.2388 8.26118 37.603 8.61025C37.8661 8.83082 38.2072 8.96832 38.5715 9.00061V9.00061ZM37.8748 9.29212C37.926 9.50393 38.0572 9.69497 38.2477 9.83511C38.456 9.95257 38.7041 10.0055 38.9516 9.98525C38.9004 9.77343 38.7692 9.5824 38.5787 9.44226C38.3704 9.32489 38.1223 9.27197 37.8748 9.29212V9.29212ZM38.2636 12.7227C38.0817 12.5743 37.8477 12.4827 37.5987 12.4625C37.3506 12.4698 37.1127 12.5496 36.9237 12.689C37.1058 12.8373 37.3397 12.9288 37.5886 12.9492C37.8367 12.942 38.0747 12.8622 38.2636 12.7227V12.7227ZM41.7803 9.63368C41.5315 9.58636 41.2713 9.61834 41.0475 9.72376C41.1667 9.92041 41.363 10.0739 41.6011 10.1567C41.8504 10.2041 42.1111 10.1721 42.3354 10.0666C42.2157 9.86977 42.0189 9.7163 41.7803 9.63368V9.63368ZM40.5373 8.98809C40.2817 9.0026 40.0404 9.09528 39.8565 9.24958C39.7053 9.42736 39.6335 9.6464 39.6541 9.86639C39.9102 9.85206 40.152 9.75938 40.3363 9.6049C40.4875 9.42712 40.5593 9.20809 40.5387 8.98809H40.5373ZM40.7815 11.2977C40.5919 11.4447 40.4698 11.6459 40.4375 11.8645C40.6893 11.8941 40.9451 11.8463 41.1602 11.7293C41.3498 11.5823 41.472 11.3811 41.5042 11.1626C41.2525 11.133 40.9968 11.1808 40.7815 11.2977V11.2977ZM45.9851 13.1131C45.9851 13.1131 45.959 12.6927 45.6483 12.4612C45.3375 12.2298 44.8591 12.2711 44.8591 12.2711C44.8591 12.2711 44.8836 12.6915 45.1959 12.9242C45.5081 13.1569 45.9851 13.1131 45.9851 13.1131V13.1131ZM37.632 11.0324C37.632 11.0324 37.2879 10.587 36.7647 10.4982C36.2415 10.4094 35.7385 10.7109 35.7385 10.7109C35.7385 10.7109 36.0825 11.1563 36.6057 11.2451C37.129 11.334 37.6334 11.0324 37.6334 11.0324H37.632ZM44.3416 18.0388C44.3623 17.7602 44.2748 17.4837 44.093 17.2531C43.8881 17.0465 43.6093 16.9051 43.3009 16.8515C43.2805 17.1249 43.3642 17.3965 43.5394 17.6247C43.7442 17.8313 44.0231 17.9727 44.3315 18.0263L44.3416 18.0388ZM39.0514 17.1655C39.0175 17.4361 39.0892 17.7088 39.2552 17.94C39.4998 17.7656 39.6715 17.5264 39.7437 17.2593C39.7775 16.9887 39.7058 16.7161 39.5399 16.4849C39.2953 16.6593 39.1236 16.8984 39.0514 17.1655V17.1655ZM38.0222 17.8912C37.963 18.1141 37.9926 18.3477 38.1061 18.5543C38.3318 18.4323 38.5042 18.2487 38.5961 18.0325C38.6554 17.8097 38.6258 17.576 38.5122 17.3694C38.2865 17.4914 38.1141 17.675 38.0222 17.8912V17.8912ZM37.2851 17.0879C37.0325 17.1556 36.8136 17.2949 36.6635 17.4833C36.8984 17.5909 37.1678 17.6278 37.4296 17.5884C37.6821 17.5206 37.901 17.3814 38.0511 17.193C37.8163 17.0854 37.5468 17.0484 37.2851 17.0879V17.0879ZM36.5508 18.7269C36.8161 18.7178 37.0704 18.6324 37.2735 18.4842C37.4526 18.316 37.561 18.1005 37.5814 17.8724C37.316 17.8816 37.0617 17.967 36.8587 18.1151C36.6796 18.2833 36.5711 18.4988 36.5508 18.7269V18.7269ZM43.0075 18.3353C43.0971 18.1388 43.1073 17.9219 43.0364 17.7198C42.9353 17.5284 42.7613 17.3729 42.5435 17.2794C42.4539 17.4758 42.4437 17.6928 42.5146 17.8949C42.6157 18.0863 42.7897 18.2417 43.0075 18.3353V18.3353ZM40.2337 18.4604C40.1766 18.666 40.2021 18.8822 40.306 19.0735C40.416 19.0269 40.5139 18.9614 40.5937 18.881C40.6735 18.8007 40.7337 18.7071 40.7704 18.606C40.8072 18.5049 40.8199 18.3984 40.8076 18.2929C40.7953 18.1875 40.7584 18.0852 40.6991 17.9925C40.4877 18.0985 40.3241 18.2635 40.2352 18.4604H40.2337ZM38.6683 13.0117C38.3582 13.0367 38.0657 13.1477 37.8343 13.3283C37.6292 13.5292 37.5058 13.7828 37.4831 14.0502C37.7932 14.0252 38.0857 13.9142 38.3171 13.7336C38.5222 13.5327 38.6456 13.2791 38.6683 13.0117V13.0117ZM38.6004 10.4194C38.3224 10.2626 37.9913 10.1916 37.6609 10.218C37.729 10.5006 37.9039 10.7554 38.1581 10.9424C38.4362 11.0991 38.7672 11.1701 39.0976 11.1438C39.0293 10.8613 38.8544 10.6064 38.6004 10.4194V10.4194ZM39.6324 12.2961C39.6324 12.2961 39.3173 11.7656 38.7348 11.5817C38.1523 11.3978 37.525 11.633 37.525 11.633C37.525 11.633 37.8415 12.1647 38.4226 12.3474C39.0037 12.5301 39.6324 12.2961 39.6324 12.2961ZM46.9477 9.17702C46.6239 9.55236 46.6933 10.0653 46.6933 10.0653C46.6933 10.0653 47.2874 9.98274 47.6112 9.61241C47.9349 9.24207 47.8655 8.72411 47.8655 8.72411C47.8655 8.72411 47.2715 8.80668 46.9477 9.17702ZM51.7465 11.0963C51.4878 10.8142 51.1343 10.6087 50.7347 10.5082C50.696 10.8704 50.8099 11.2325 51.0553 11.5277C51.3008 11.8229 51.6612 12.0314 52.0703 12.1147C52.0887 11.7541 51.9765 11.3976 51.7494 11.095L51.7465 11.0963ZM45.0094 8.50766C45.0094 8.50766 44.531 8.8242 44.45 9.28336C44.3691 9.74253 44.7145 10.1692 44.7145 10.1692C44.7145 10.1692 45.1915 9.85263 45.2739 9.39346C45.3563 8.93429 45.0094 8.50766 45.0094 8.50766ZM50.2693 2.90382C50.0453 3.10464 49.9066 3.36534 49.8761 3.64324C50.037 3.65326 50.1986 3.63504 50.3512 3.58969C50.5038 3.54434 50.6442 3.47278 50.7641 3.37931C50.8839 3.28585 50.9807 3.1724 51.0487 3.04576C51.1167 2.91912 51.1544 2.7819 51.1597 2.64234C50.8366 2.64133 50.5226 2.73529 50.2693 2.90883V2.90382ZM50.5786 4.5353C50.743 4.29736 50.8083 4.01787 50.7636 3.74334C50.6049 3.76406 50.4528 3.8126 50.3165 3.88599C50.1802 3.95938 50.0626 4.05608 49.971 4.17016C49.8794 4.28424 49.8157 4.4133 49.7837 4.54945C49.7517 4.68559 49.7522 4.82596 49.7851 4.96194C50.098 4.90214 50.378 4.75162 50.5786 4.5353V4.5353ZM51.7913 4.70546C51.7909 4.42768 51.6807 4.15838 51.4791 3.94227C51.355 4.03056 51.253 4.13989 51.1795 4.26355C51.106 4.38721 51.0625 4.52257 51.0517 4.66132C51.0408 4.80007 51.0629 4.93927 51.1165 5.07036C51.1702 5.20145 51.2542 5.32167 51.3635 5.42361C51.5991 5.23398 51.7522 4.97997 51.7971 4.70421L51.7913 4.70546ZM48.9684 7.3391C48.8316 7.55712 48.8005 7.81323 48.8818 8.05112C48.9631 8.28901 49.1502 8.48922 49.402 8.60775C49.5388 8.38972 49.5699 8.13362 49.4886 7.89573C49.4073 7.65784 49.2202 7.45762 48.9684 7.3391V7.3391ZM50.0062 6.05168C50.3402 5.94864 50.6291 5.75849 50.833 5.50743C50.5021 5.39762 50.1401 5.37927 49.7966 5.45489C49.5671 5.52046 49.3586 5.6319 49.1881 5.78019C49.2901 5.61019 49.352 5.42433 49.3702 5.23344C49.3821 4.93242 49.2959 4.63458 49.1216 4.37391C48.9081 4.6115 48.7763 4.89641 48.7415 5.1959C48.7307 5.36157 48.7537 5.52758 48.8094 5.68635C48.686 5.58124 48.5415 5.49644 48.383 5.43612C48.0509 5.32812 47.6883 5.31194 47.3452 5.38983C47.5147 5.66079 47.7774 5.87942 48.0968 6.0154C48.2747 6.07867 48.4653 6.11098 48.6576 6.11048C48.4944 6.19971 48.3592 6.32267 48.2645 6.46831C48.1342 6.72078 48.1077 7.00422 48.1893 7.27154C48.4884 7.17981 48.743 7.0035 48.912 6.77108C48.9563 6.697 48.9879 6.61778 49.006 6.53587C49.0433 6.65102 49.11 6.75748 49.2011 6.8474C49.5162 7.14642 50.0872 7.14142 50.0872 7.14142C50.0872 7.14142 50.1479 6.64972 49.8328 6.3507C49.6402 6.1896 49.3898 6.09029 49.1231 6.0692V6.06044C49.4087 6.13263 49.7118 6.13523 49.999 6.06794L50.0062 6.05168ZM42.7921 16.7651C42.5492 16.6089 42.2563 16.5215 41.9538 16.5149C41.832 16.518 41.7116 16.5374 41.5967 16.5725C41.6977 16.4735 41.777 16.3594 41.8309 16.2359C41.9264 15.9629 41.9193 15.6707 41.8107 15.4014C41.5294 15.5469 41.3087 15.766 41.1805 16.027C41.121 16.179 41.0993 16.3401 41.1169 16.4999C41.0436 16.3883 40.9405 16.2935 40.8162 16.2234C40.4592 16.032 39.9793 16.1396 39.9793 16.1396C39.9793 16.1396 40.0791 16.5587 40.4361 16.7514C40.5328 16.8013 40.6398 16.8345 40.7512 16.849C40.6288 16.8853 40.5176 16.9452 40.426 17.0241C40.1455 17.2744 40.1745 17.6922 40.1745 17.6922C40.1745 17.6922 40.6587 17.6997 40.9391 17.442C41.0029 17.3831 41.0542 17.3149 41.0909 17.2406C41.0957 17.3407 41.1238 17.439 41.1732 17.5296C41.3611 17.8586 41.8425 17.985 41.8425 17.985C41.8425 17.985 42.0174 17.5784 41.828 17.2493C41.763 17.1426 41.6705 17.0501 41.5577 16.9791C41.6886 17.0194 41.8265 17.0397 41.9653 17.0391C42.267 17.0238 42.5557 16.9281 42.7921 16.7651V16.7651ZM43.9788 11.0099C43.9788 11.0099 43.4339 10.9949 43.0985 11.2777C43.0011 11.3626 42.9249 11.464 42.8745 11.5754C42.8571 11.4485 42.8077 11.3263 42.73 11.2176C42.4785 10.8698 41.9292 10.7735 41.9292 10.7735C41.9292 10.7735 41.7847 11.2414 42.0419 11.5905C42.1111 11.6829 42.2005 11.7628 42.305 11.8257C42.1591 11.8094 42.0107 11.8222 41.8714 11.8632C41.4378 11.9983 41.2325 12.4325 41.2325 12.4325C41.2325 12.4325 41.7182 12.6477 42.1475 12.5125C42.2462 12.4803 42.3377 12.4333 42.4177 12.3737C42.3658 12.4772 42.3382 12.5886 42.3368 12.7015C42.3368 13.1156 42.7531 13.4521 42.7531 13.4521C42.7531 13.4521 43.1636 13.1156 43.1621 12.7015C43.1582 12.5653 43.1181 12.4317 43.0451 12.3111C43.1544 12.4084 43.2826 12.4884 43.4238 12.5476C43.74 12.6605 44.089 12.6859 44.4226 12.6201C44.2673 12.3561 44.0214 12.1402 43.7186 12.0021C43.6124 11.96 43.5001 11.9306 43.3847 11.9145C43.4761 11.8774 43.56 11.828 43.6334 11.7681C43.9701 11.4866 43.9716 11.0174 43.9716 11.0174L43.9788 11.0099ZM56.8358 12.151C56.8358 12.151 56.2952 12.0809 55.9382 12.3274C55.8562 12.3851 55.7867 12.455 55.733 12.5338C55.7444 12.4211 55.7297 12.3075 55.6896 12.1998C55.5364 11.8082 55.0204 11.6042 55.0204 11.6042C55.0204 11.6042 54.7544 12.0371 54.9091 12.4287C54.9629 12.5567 55.05 12.6722 55.1635 12.7665C55.0246 12.7028 54.8739 12.6605 54.7183 12.6414C54.3767 12.6214 54.0364 12.6935 53.7441 12.8478C53.9883 13.0554 54.3009 13.1922 54.6388 13.2395C54.7641 13.2509 54.8907 13.2467 55.0146 13.2269C54.945 13.2977 54.8924 13.3798 54.8599 13.4684C54.7472 13.7975 54.9857 14.1503 54.9857 14.1503C54.9857 14.1503 55.4078 13.9701 55.5205 13.6411C55.5366 13.5926 55.5458 13.5426 55.548 13.4922C55.6012 13.5683 55.6686 13.6364 55.7474 13.6936C56.1146 13.9538 56.6696 13.895 56.6696 13.895C56.6696 13.895 56.6306 13.4121 56.2634 13.1519C56.1836 13.0981 56.0943 13.0559 55.9989 13.0268C56.1596 13.0042 56.3115 12.948 56.4412 12.8629C56.7982 12.6126 56.8373 12.1472 56.8373 12.1472L56.8358 12.151ZM60.7891 7.09388C60.7543 7.1666 60.7319 7.2433 60.7226 7.32158C60.6591 7.23004 60.5714 7.15286 60.4667 7.09638C60.1213 6.91997 59.6486 7.05885 59.6486 7.05885C59.6486 7.05885 59.7339 7.48548 60.0822 7.66189C60.1869 7.71263 60.3036 7.74176 60.4234 7.74697C60.2765 7.77116 60.1381 7.82424 60.0187 7.90211C59.6602 8.15234 59.6197 8.61651 59.6197 8.61651C59.6197 8.61651 60.1603 8.68782 60.5173 8.44135C60.5931 8.38761 60.6581 8.32335 60.7096 8.25118C60.6909 8.34799 60.6943 8.44702 60.7197 8.54269C60.8194 8.888 61.2371 9.09444 61.2371 9.09444C61.2371 9.09444 61.4915 8.74162 61.3918 8.3963C61.351 8.26978 61.2751 8.15382 61.1707 8.0585C61.3113 8.1068 61.4617 8.1302 61.6129 8.12731C61.9258 8.10047 62.2195 7.98477 62.4484 7.79826C62.2023 7.62653 61.8972 7.53058 61.5812 7.52552C61.5043 7.52896 61.4282 7.53988 61.3542 7.55805C61.4133 7.49818 61.462 7.43116 61.4988 7.35912C61.6852 6.98378 61.4785 6.55213 61.4785 6.55213C61.4785 6.55213 60.9697 6.71979 60.7847 7.09262L60.7891 7.09388ZM50.7622 1.40497C50.8036 1.41217 50.8457 1.41635 50.8879 1.41747C50.8476 1.45571 50.8122 1.49766 50.7824 1.54259C50.6573 1.7685 50.6267 2.02496 50.6957 2.26825C50.9729 2.19446 51.2123 2.04026 51.3736 1.8316C51.4334 1.73756 51.4712 1.63425 51.4849 1.52758C51.5271 1.61701 51.5895 1.69826 51.6684 1.76654C51.9575 2.01677 52.4432 1.9905 52.4432 1.9905C52.4432 1.9905 52.4432 1.57387 52.1541 1.32865C52.0707 1.26136 51.9723 1.20943 51.865 1.17601C51.944 1.17188 52.0219 1.15797 52.0963 1.13472C52.3301 1.04161 52.5203 0.882296 52.6354 0.683059C52.3967 0.600454 52.1326 0.590745 51.8867 0.655534C51.8102 0.681768 51.7386 0.717602 51.6742 0.761881C51.6853 0.717886 51.6911 0.673028 51.6916 0.628009C51.6701 0.392181 51.5529 0.170555 51.3606 0.00244141C51.1672 0.170182 51.0489 0.391851 51.0267 0.628009C51.0276 0.71359 51.0462 0.798341 51.0816 0.878236C51.0261 0.85379 50.9674 0.835303 50.9067 0.823186C50.5121 0.749369 50.119 0.982082 50.119 0.982082C50.119 0.982082 50.3661 1.33365 50.7622 1.40621V1.40497ZM60.1805 15.8018C59.8792 15.7188 59.5554 15.7188 59.254 15.8018C59.1036 15.8531 58.9658 15.9287 58.8479 16.0245C58.8354 15.9653 58.8145 15.9078 58.7857 15.8531C58.5978 15.5153 58.1208 15.3764 58.1208 15.3764C58.1208 15.3764 57.9474 15.7855 58.1353 16.1271C58.1567 16.1644 58.1818 16.2 58.2104 16.2334C58.1616 16.2367 58.1132 16.2438 58.0659 16.2547C57.6424 16.3548 57.3967 16.7489 57.3967 16.7489C57.3967 16.7489 57.8375 16.9816 58.2639 16.8815C58.2905 16.874 58.3165 16.8652 58.342 16.8552C58.3284 16.8998 58.3201 16.9455 58.3174 16.9916C58.2971 17.3569 58.6484 17.6672 58.6484 17.6672C58.6484 17.6672 59.0343 17.3857 59.056 17.0204C59.0573 16.9991 59.0573 16.9778 59.056 16.9566C59.0719 16.9666 59.0849 16.9778 59.1022 16.9866C59.4809 17.188 59.9883 17.0704 59.9883 17.0704C59.9883 17.0704 59.8828 16.6275 59.5041 16.4261C59.4552 16.4002 59.4034 16.3788 59.3494 16.3623C59.3985 16.3529 59.4467 16.3408 59.494 16.326C59.784 16.2171 60.0279 16.0331 60.1921 15.7993L60.1805 15.8018ZM39.3231 8.35752C39.339 8.35752 39.352 8.34877 39.3679 8.34501C39.3613 8.37012 39.357 8.39564 39.3549 8.42133C39.3642 8.6253 39.4593 8.8193 39.6223 8.96683C39.8011 8.83305 39.9176 8.64766 39.9504 8.4451C39.9521 8.40315 39.9482 8.36117 39.9389 8.31999C39.9736 8.34307 40.0109 8.36319 40.0502 8.38004C40.2822 8.45776 40.5388 8.46042 40.7729 8.38755C40.6961 8.18421 40.537 8.01178 40.3248 7.90211C40.2598 7.87603 40.1906 7.85873 40.1195 7.85081C40.1579 7.8265 40.1932 7.79882 40.225 7.76824C40.3624 7.61258 40.4343 7.42104 40.4289 7.22524C40.2036 7.24752 39.994 7.33582 39.8348 7.47547C39.7926 7.51816 39.7576 7.56575 39.7307 7.61685C39.7214 7.55402 39.701 7.49282 39.67 7.43543C39.5493 7.25584 39.3587 7.11926 39.1323 7.05009C39.0536 7.24595 39.0577 7.45964 39.1439 7.65313C39.1851 7.72494 39.2415 7.78944 39.3101 7.84331C39.2722 7.8442 39.2345 7.84796 39.1974 7.85457C38.9641 7.91738 38.7646 8.05057 38.6351 8.22991C38.8387 8.34641 39.0841 8.39529 39.326 8.36753L39.3231 8.35752ZM52.0182 3.99982C52.2328 3.72065 52.3154 3.38083 52.249 3.05048C52.1826 2.72013 51.9722 2.42445 51.6612 2.22446C51.447 2.50372 51.3646 2.84346 51.431 3.17372C51.4974 3.50398 51.7076 3.79964 52.0182 3.99982V3.99982ZM54.4552 3.48435C54.5593 3.55673 54.6801 3.60879 54.8096 3.63698C54.939 3.66516 55.074 3.6688 55.2052 3.64765C55.3364 3.62651 55.4608 3.58107 55.5699 3.51444C55.6789 3.44782 55.7701 3.36159 55.837 3.26165C55.733 3.18927 55.6121 3.13721 55.4827 3.10903C55.3532 3.08084 55.2183 3.0772 55.0871 3.09835C54.9558 3.1195 54.8314 3.16494 54.7224 3.23156C54.6133 3.29818 54.5222 3.38441 54.4552 3.48435V3.48435ZM53.4434 3.8159C53.1963 3.95726 53.0131 4.16803 52.9245 4.41269C53.2055 4.48094 53.5053 4.46009 53.7701 4.35389C54.0172 4.21253 54.2005 4.00176 54.289 3.7571C54.008 3.68885 53.7082 3.7097 53.4434 3.8159V3.8159ZM54.1965 1.25108C54.7819 0.910767 54.9741 0.270186 54.9741 0.270186C54.9741 0.270186 54.2167 0.181356 53.6299 0.520413C53.043 0.859471 52.8522 1.5013 52.8522 1.5013C52.8522 1.5013 53.6097 1.59013 54.1965 1.25108ZM39.9013 10.278C39.821 10.439 39.8037 10.6182 39.8521 10.7885C40.0387 10.7158 40.1937 10.5935 40.2944 10.4394C40.3746 10.2784 40.3919 10.0992 40.3436 9.92895C40.1566 10.0015 40.0011 10.1238 39.8998 10.278H39.9013ZM37.2504 13.1919C37.0178 13.1689 36.7827 13.2096 36.5782 13.3083C36.3893 13.4235 36.2484 13.5885 36.1764 13.7787C36.409 13.8017 36.6441 13.761 36.8485 13.6623C37.0375 13.547 37.1784 13.3821 37.2504 13.1919V13.1919ZM55.1461 7.18646C55.2039 7.12766 55.1461 7.09763 55.0869 7.10263C55.0276 7.10764 54.7414 7.12015 54.7414 7.12015C54.7414 7.12015 54.7414 6.9012 54.7414 6.76608C54.7414 6.63095 54.6532 6.681 54.6099 6.7323C54.525 6.8251 54.428 6.90906 54.3208 6.98252C54.1689 6.95061 54.0087 6.971 53.8739 7.03939C53.739 7.10778 53.6401 7.21883 53.5981 7.34911C53.5345 7.50925 53.4926 7.64438 53.3842 7.65689C53.2758 7.6694 53.2136 7.48798 53.189 7.20147C53.1645 6.91496 52.9794 6.63221 52.78 6.5684C52.5805 6.50459 51.7957 6.35696 51.6497 6.43328C51.5037 6.5096 51.6005 6.85991 51.9561 7.05885C51.5759 7.15143 51.8202 7.5055 52.2148 7.6206C51.9416 7.74572 52.2293 7.99594 52.4923 8.07601C52.3036 8.23562 52.1511 8.42448 52.0428 8.63277C50.8865 8.4939 50.7333 8.76789 50.7174 8.83921C50.6928 8.9443 50.82 9.06691 50.9559 9.11321C50.8113 9.23832 50.6003 9.45477 50.7072 9.59865C50.8142 9.74253 51.1409 9.64119 51.2854 9.55611C51.2591 9.62649 51.2621 9.70266 51.2941 9.77127C51.3261 9.83989 51.3849 9.89659 51.4603 9.93145C51.8347 10.0716 52.2741 9.48855 52.2842 9.18077C52.3767 9.20579 52.884 9.27335 53.0344 9.19828C52.8494 9.62492 53.1124 9.78507 53.2338 9.7125C53.1991 10.3381 53.5504 10.2442 53.6573 10.1554C53.6573 10.2693 53.6718 10.7297 53.9349 10.7209C54.1979 10.7122 54.4957 10.1341 54.5925 9.59489C54.6894 9.05566 54.6214 8.73036 54.3251 8.48889C54.5055 8.35665 54.6501 8.19175 54.7488 8.00583C54.8474 7.8199 54.8977 7.6175 54.8961 7.41291C54.8961 7.41291 55.0955 7.25652 55.1548 7.19772L55.1461 7.18646ZM41.6661 5.70386C41.7543 6.19306 41.9003 6.50084 42.198 6.75482C41.8324 6.93998 41.867 7.33284 41.9885 7.96091C42.1099 8.58898 42.4669 8.96182 42.6664 8.92679C42.8658 8.89176 42.9106 8.64779 42.8658 8.3913C43.2893 8.73787 43.3674 8.20989 43.2705 7.93589C43.7042 7.97843 43.5192 7.57306 43.4454 7.42543C43.4946 7.45045 44.0843 7.48924 44.226 7.43419C44.489 8.21865 44.9328 8.28245 45.0744 8.17235C45.2161 8.06225 45.1713 7.94465 45.1323 7.77574C45.3173 7.80577 45.4936 7.75948 45.5471 7.65063C45.6006 7.54178 45.5225 7.46046 45.4025 7.38038C45.5012 7.37872 45.5988 7.36308 45.6916 7.33409C45.7639 7.31282 45.9402 7.20898 45.774 7.00129C45.6078 6.7936 44.6336 6.79861 44.4341 6.80236C44.3087 6.64184 44.1721 6.48809 44.0251 6.34194C44.1032 6.33459 44.1785 6.31266 44.2459 6.27766C44.3133 6.24267 44.3711 6.19545 44.4153 6.13926C44.4274 6.0872 44.4172 6.03311 44.3866 5.98708C44.356 5.94105 44.3072 5.9062 44.2491 5.88903C44.424 5.83899 44.6827 5.65257 44.6827 5.51369C44.6827 5.37482 44.5266 5.30725 44.4486 5.27723C44.5266 5.24345 44.9892 4.99072 44.7897 4.75801C44.5902 4.5253 43.6059 4.89688 43.4642 5.00823C43.3226 5.11958 43.3081 5.34229 43.3081 5.52245C43.3081 5.70262 43.2648 5.86401 43.113 5.88903C42.9612 5.91406 42.9424 5.8002 42.8846 5.6313C43.0292 5.61504 43.0162 5.48366 42.9627 5.48366C42.9092 5.48366 42.8413 5.45364 42.6938 5.35855C42.6061 5.29925 42.5027 5.25975 42.3929 5.24359C42.2832 5.22743 42.1705 5.23512 42.0651 5.26597C42.0076 5.15776 41.944 5.05211 41.8743 4.94943C41.8006 4.85309 41.7384 4.94943 41.7384 5.02075C41.7384 5.09206 41.763 5.37481 41.763 5.37481L41.3872 5.32852C41.2845 5.31601 41.2903 5.37857 41.3438 5.42987C41.3973 5.48116 41.6705 5.71262 41.6705 5.71262L41.6661 5.70386ZM47.9161 12.226C47.9161 12.3161 47.9161 12.445 48.1951 12.4287C48.4221 12.3956 48.6332 12.3062 48.8027 12.1715C48.9723 12.0367 49.0931 11.8622 49.1505 11.6693C49.3269 11.1513 49.1187 10.5107 48.6432 10.2342C48.1676 9.95772 47.4189 10.0966 47.1356 10.3406C46.8234 10.6108 46.5965 11.1338 46.8754 11.5166C46.9699 11.6548 47.1083 11.7665 47.2741 11.8384C47.44 11.9103 47.6262 11.9393 47.8106 11.922C47.996 11.8977 48.1661 11.8191 48.2926 11.6993C48.4192 11.5796 48.4944 11.4259 48.5059 11.2639V11.2639C48.5124 11.2376 48.5158 11.2108 48.516 11.1838C48.5163 11.1141 48.4958 11.0455 48.4566 10.9846C48.4173 10.9238 48.3606 10.8727 48.2919 10.8363C48.2232 10.8 48.1448 10.7796 48.0643 10.7771C47.9838 10.7746 47.9039 10.7902 47.8324 10.8222C47.7609 10.8543 47.7001 10.9017 47.6559 10.9601C47.6118 11.0184 47.5858 11.0856 47.5804 11.1551C47.575 11.2247 47.5905 11.2943 47.6252 11.3572C47.66 11.42 47.7129 11.4741 47.7788 11.5141C47.6836 11.5494 47.5762 11.5511 47.4796 11.5188C47.3829 11.4866 47.3046 11.4229 47.2614 11.3415C47.1168 11.1163 47.0474 10.5483 47.8395 10.3906C48.6316 10.233 48.8788 11.0099 48.886 11.2664C48.8932 11.5229 48.8282 12.1497 47.9103 12.2235L47.9161 12.226ZM48.2283 4.91565C48.2268 4.85896 48.2063 4.80388 48.1693 4.75704C48.1324 4.7102 48.0806 4.6736 48.0202 4.65166C47.8901 4.59035 47.442 4.44397 47.2599 4.10617C47.0778 3.76836 47.0388 3.34673 47.3958 3.06022C47.7528 2.77371 48.3902 2.89131 48.5781 3.0377C48.6699 3.10042 48.7385 3.185 48.7755 3.28102C48.8125 3.37705 48.8162 3.48034 48.7863 3.57819C48.7449 3.67061 48.6654 3.74647 48.5631 3.79108C48.4609 3.83568 48.3431 3.84586 48.2327 3.81966C48.2882 3.78129 48.3315 3.73137 48.3585 3.67455C48.3856 3.61773 48.3956 3.55589 48.3875 3.49483C48.3794 3.43377 48.3535 3.37549 48.3123 3.32546C48.271 3.27543 48.2158 3.23528 48.1517 3.20878C48.0877 3.18229 48.0169 3.17032 47.946 3.174C47.8751 3.17767 47.8065 3.19687 47.7465 3.22979C47.6866 3.26271 47.6372 3.30828 47.6032 3.36222C47.5692 3.41615 47.5515 3.47669 47.5519 3.53815C47.5518 3.62212 47.5713 3.70524 47.6092 3.78256C47.647 3.85988 47.7024 3.92981 47.7722 3.98818C47.8419 4.04656 47.9245 4.09219 48.0151 4.12234C48.1056 4.1525 48.2022 4.16657 48.2992 4.16372C48.8585 4.16372 49.1664 3.82091 49.1664 3.3755C49.1664 2.9301 48.6923 2.57728 48.0101 2.57728C47.3278 2.57728 46.7497 3.10651 46.7627 3.62948C46.7757 4.15246 47.166 4.82182 48.2255 4.9119L48.2283 4.91565ZM62.3906 15.5791C62.2692 15.4952 60.4176 14.672 58.222 14.4743L58.329 14.4368C60.3106 13.7086 61.2935 12.7778 61.5956 12.3987C62.2215 12.5426 62.7519 12.3249 62.9688 12.0459C63.1856 11.7669 63.281 11.0112 62.8069 10.6108C62.5408 10.4 62.2049 10.267 61.8466 10.2306C61.4884 10.1942 61.126 10.2563 60.8107 10.4081C60.088 10.7347 60.2123 11.7306 60.4147 11.9095C60.6171 12.0884 60.7327 12.0621 60.7977 12.0284C60.7255 11.9721 60.4797 11.7919 60.5376 11.3302C60.571 11.0921 60.7106 10.8746 60.9266 10.7243C61.1427 10.574 61.418 10.5028 61.6939 10.5257C62.3313 10.5533 62.7794 10.8911 62.7924 11.4541C62.8016 11.5516 62.7869 11.6497 62.7493 11.742C62.7117 11.8342 62.6519 11.9186 62.574 11.9894C62.4961 12.0603 62.4017 12.1161 62.2971 12.1532C62.1925 12.1904 62.0801 12.2079 61.9671 12.2048C61.6491 12.1935 61.2978 12.0972 61.3109 11.7493C61.3064 11.6924 61.3238 11.6357 61.3604 11.5882C61.397 11.5407 61.4507 11.505 61.5132 11.4866C61.5271 11.5499 61.5607 11.6087 61.6103 11.6567C61.66 11.7047 61.7238 11.7401 61.7949 11.759C61.8661 11.7779 61.9419 11.7797 62.0141 11.7641C62.0863 11.7485 62.1522 11.7161 62.2048 11.6705C62.2573 11.6249 62.2945 11.5677 62.3123 11.5052C62.3301 11.4426 62.3278 11.377 62.3057 11.3155C62.2837 11.254 62.2426 11.1989 62.187 11.156C62.1314 11.1132 62.0634 11.0843 61.9902 11.0725V11.0725C61.8509 11.0378 61.7037 11.0346 61.5625 11.063C61.4213 11.0915 61.2909 11.1507 61.1837 11.2351C61.0905 11.3121 61.0209 11.4078 60.9809 11.5137C60.941 11.6197 60.932 11.7325 60.9547 11.8422C60.9775 11.9519 61.0313 12.055 61.1114 12.1423C61.1914 12.2296 61.2952 12.2983 61.4135 12.3424C60.6821 13.0593 59.0849 14.0114 57.5932 14.2841C56.4992 14.4904 55.3681 14.5019 54.2688 14.3179C54.1806 14.0902 53.8004 13.7524 53.1775 13.7862C52.9834 13.7869 52.7954 13.8446 52.6442 13.9498C52.493 14.0551 52.3874 14.2016 52.3449 14.3655C52.3124 14.4274 52.2999 14.4959 52.3088 14.5635C52.3178 14.6312 52.3478 14.6954 52.3957 14.7494C52.4436 14.8034 52.5075 14.8451 52.5807 14.8701C52.6539 14.895 52.7335 14.9023 52.8111 14.8911C52.8886 14.8798 52.9612 14.8506 53.021 14.8064C53.0809 14.7622 53.1257 14.7048 53.1507 14.6403C53.1757 14.5757 53.18 14.5065 53.1631 14.44C53.1462 14.3736 53.1087 14.3123 53.0546 14.2629C53.4376 14.1978 53.7325 14.5031 53.7325 14.8747C53.7272 15.0264 53.6641 15.1724 53.553 15.2898C53.4419 15.4072 53.289 15.4896 53.1182 15.524C52.9433 15.549 52.3955 15.6679 52.0269 15.1274C51.6583 14.5869 52.1541 14.0014 52.329 13.7599C52.5039 13.5185 53.1775 12.9154 53.5085 12.5789C53.7282 12.3549 54.2312 11.8482 54.7125 11.414C54.8435 11.3251 54.9964 11.2636 55.1594 11.2343C55.3224 11.205 55.491 11.2087 55.652 11.2451C56.1203 11.3465 56.6017 11.5717 57.2246 12.0108C57.8476 12.45 58.5111 12.8316 58.7713 12.6189C58.6021 12.5401 58.1078 12.3599 57.7595 12.0559C57.4313 11.7719 56.3747 10.8373 55.4829 10.7735C55.8695 10.4901 56.2328 10.1837 56.5699 9.85638C58.6889 10.4344 60.7775 9.99025 61.4756 9.70374C61.4236 9.63618 61.2935 9.62492 61.042 9.68122C59.1095 10.1216 57.6178 9.8201 56.8633 9.55611C57.0252 9.39096 57.2001 9.20454 57.3938 8.98935C58.3593 7.91712 58.5053 6.26312 58.4851 6.12049C58.4648 5.97786 58.4359 5.91781 58.329 5.90155C58.329 6.22184 58.3477 7.3366 56.9731 8.87174C56.7679 9.1007 56.593 9.28211 56.434 9.43475C56.0683 8.35252 56.2895 6.56965 56.3964 5.94533C56.6366 5.97453 56.8807 5.96988 57.1191 5.93157C58.1584 5.77393 58.5226 4.85184 58.4648 4.35014C58.407 3.84843 58.1555 3.13528 57.1524 3.03394C56.8734 3.00517 56.8272 3.14029 56.8214 3.18533C56.9572 3.18533 57.5759 3.21285 57.8939 3.58444C58.2119 3.95603 58.2639 4.69295 57.9199 5.0758C57.5759 5.45864 56.8026 5.75141 56.275 5.57625C55.7474 5.40109 55.3673 4.96695 55.5017 4.42896C55.6361 3.89097 56.1579 3.80339 56.3993 3.83217C56.6407 3.86094 57.0816 4.00107 57.1148 4.33262C57.1296 4.40198 57.119 4.4736 57.0846 4.53752C57.0501 4.60143 56.9935 4.65445 56.9226 4.6892C56.9271 4.66899 56.9295 4.64847 56.9298 4.62789C56.9301 4.56089 56.9089 4.49513 56.8686 4.43791C56.8284 4.38068 56.7706 4.33423 56.7017 4.30369C56.6328 4.27315 56.5555 4.25972 56.4783 4.26488C56.4011 4.27005 56.3271 4.29362 56.2644 4.33296C56.2018 4.37231 56.1529 4.42591 56.1233 4.48781C56.0937 4.54972 56.0845 4.61751 56.0967 4.68368C56.1088 4.74985 56.1419 4.8118 56.1923 4.86268C56.2426 4.91357 56.3083 4.95139 56.382 4.97195V4.97195H56.4008C56.4369 4.98142 56.4743 4.98647 56.5121 4.98696H56.5496C56.6849 4.99483 56.8205 4.9787 56.9483 4.93954C57.076 4.90038 57.1932 4.83903 57.2926 4.75926C57.5716 4.50903 57.479 4.08239 57.3967 3.94352C57.2348 3.66827 56.9168 3.44306 56.2721 3.49936C55.5494 3.56693 54.8946 4.21376 55.1158 4.93442C55.1782 5.16474 55.3117 5.37605 55.5022 5.54575C55.6926 5.71544 55.9328 5.83713 56.197 5.89779C55.8399 7.49924 56.0119 9.07817 56.1044 9.73502C55.4424 10.2755 55.0927 10.2617 54.1011 11.0925C52.7554 12.2185 52.4042 13.0418 51.4198 12.983C50.4355 12.9242 50.2115 10.5783 50.119 9.47979C50.1073 9.30741 50.1136 9.13448 50.1377 8.96307C50.2823 8.57522 50.674 8.07852 51.3664 8.03598C51.3664 7.9434 51.2883 7.85832 51.0773 7.8921C50.8021 7.95821 50.5424 8.06532 50.3098 8.20863C50.4907 7.6804 50.7415 7.172 51.057 6.69351C51.2767 6.37572 51.7031 5.98912 52.0688 5.4674C52.5155 5.21717 53.6891 4.83057 54.5362 4.71672C54.5107 4.6681 54.467 4.62833 54.4122 4.60382C54.3574 4.57931 54.2946 4.57148 54.2341 4.5816C53.58 4.68295 52.9393 4.84098 52.3218 5.05328C52.5722 4.54967 52.7588 4.02403 52.8783 3.4856C52.9072 3.23537 52.8682 3.17282 52.7424 3.13904C52.7236 3.51438 52.3724 4.39017 52.0789 4.92816C51.7855 5.46615 51.1626 5.89028 50.6162 6.75106C50.1341 7.56215 49.7769 8.42444 49.5538 9.31589C48.9294 9.10445 48.2081 7.95716 48.0722 7.68941C47.9364 7.42167 47.5562 6.48332 46.8436 5.74015C46.3522 5.22936 45.7777 4.78306 45.138 4.4152C45.0827 4.39399 45.0229 4.38304 44.9624 4.38304C44.9019 4.38304 44.8421 4.39399 44.7868 4.4152C45.5283 4.753 46.3464 5.59627 46.7468 6.07795C47.1472 6.55964 47.5562 7.4542 47.7991 8.07977C48.0419 8.70534 48.5102 9.15199 48.9554 9.57362C49.4006 9.99526 49.7157 10.8248 49.6868 11.6155C49.6579 12.4062 48.8672 13.0505 48.331 13.0756C47.7947 13.1006 47.3568 12.4763 46.4779 11.7669C46.3507 11.6643 46.2235 11.5679 46.0963 11.4741C46.5545 9.75879 46.2192 8.36378 46.04 7.94465C46.04 7.94465 45.8839 7.80953 46.0111 8.48514C46.1267 9.09945 45.9345 10.6771 45.7523 11.2289C45.2832 10.9058 44.7902 10.6094 44.2766 10.3418C43.8964 10.1479 42.7271 9.59114 41.9856 8.84046C41.2441 8.08978 40.6688 6.69727 40.6211 6.39324C40.5329 6.43578 40.4765 6.53712 40.5242 6.74731C40.7459 7.4323 41.0669 8.09022 41.4797 8.70534C41.9668 9.37219 43.1275 10.3756 43.5856 10.6208C44.0438 10.866 45.1756 11.5742 45.6916 12.0296C46.2076 12.485 46.7641 13.2957 46.861 13.7261C46.1126 13.5186 45.3215 13.4525 44.5411 13.5322C44.0677 13.6074 43.6219 13.7789 43.2402 14.0327C42.5999 13.9043 41.9978 13.661 41.4729 13.3186C40.9481 12.9761 40.5121 12.5421 40.1932 12.0446C40.1864 11.722 40.2556 11.4015 40.3965 11.1027C40.5374 10.8039 40.7471 10.5331 41.0128 10.3068C40.8856 10.2392 40.7685 10.3155 40.6919 10.3831C40.6153 10.4507 40.0819 11.0087 39.936 11.618C39.3433 10.5107 39.2349 9.37219 39.1901 8.94055C39.034 8.94931 39.0152 9.05065 39.0152 9.14323C39.059 10.0074 39.2539 10.8608 39.5934 11.6743C39.9853 12.5514 40.6254 13.3292 41.4551 13.9363C41.8454 14.1978 42.5464 14.2566 42.3137 14.5444C42.081 14.8321 41.6112 14.5782 40.5691 15.0761C40.2098 15.2518 39.8709 15.4571 39.5573 15.6892L39.339 15.449C39.6686 15.1199 39.644 14.6107 39.5385 14.2441C40.1947 14.3792 40.6558 14.2328 40.663 14.0189C40.6702 13.805 40.2409 13.7261 39.9548 13.805C40.1499 13.6924 40.4621 13.3383 40.2727 13.1857C40.0834 13.033 39.8391 13.1857 39.6816 13.337C39.6946 13.242 39.7336 12.8816 39.3506 12.8979C38.9675 12.9142 39.0716 13.601 39.1554 13.8988C38.7218 14.2591 37.7187 14.6495 37.5236 14.6858C37.2346 14.7458 36.9668 14.8655 36.743 15.0348C36.6518 15.1278 36.5945 15.242 36.5783 15.3632C36.5621 15.4843 36.5877 15.6069 36.652 15.7154C36.6032 15.8066 36.5621 15.9007 36.5291 15.9969C36.5031 16.1108 36.5652 16.1108 36.6072 16.0808C36.6722 16.0357 36.8543 15.8731 36.8543 15.8731C36.8714 15.9588 36.8825 16.0452 36.8876 16.1321C36.8876 16.2222 36.9656 16.2059 36.9844 16.1659C37.0176 16.0807 37.0632 15.9995 37.1203 15.9244C37.1853 15.8568 37.5235 15.7555 37.8025 15.733C38.0511 15.7129 38.742 15.793 39.1569 15.5816L39.391 15.8118C39.0671 16.0574 38.7656 16.3243 38.4891 16.61C38.3532 16.7614 38.3041 16.9303 38.3923 16.9853C39.1752 16.1108 40.2501 15.4661 41.471 15.1387C41.8844 15.0473 42.2038 15.0398 42.6057 15.2313C42.6519 16.3573 43.5741 16.7076 44.0511 16.6738C44.5281 16.64 44.8793 16.4624 45.0166 16.1171C45.0769 15.9631 45.0923 15.7986 45.0616 15.6381C45.0308 15.4777 44.9548 15.3264 44.8403 15.1975L44.8316 15.2075C44.7734 15.1637 44.7039 15.1328 44.6289 15.1173C44.5539 15.1019 44.4758 15.1024 44.4011 15.1189C44.3264 15.1353 44.2574 15.1672 44.2 15.2117C44.1427 15.2563 44.0986 15.3122 44.0717 15.3747C44.0447 15.4372 44.0357 15.5044 44.0453 15.5706C44.055 15.6368 44.083 15.7 44.127 15.7548C44.171 15.8095 44.2297 15.8543 44.298 15.8851C44.3664 15.916 44.4423 15.932 44.5194 15.9319C44.5495 15.9318 44.5795 15.9293 44.609 15.9244C44.5974 16.1271 44.3749 16.2272 44.1479 16.2272C43.8849 16.2272 43.5698 15.9231 43.5539 15.459C43.538 14.9948 44.041 14.5306 44.7102 14.5306C45.3794 14.5306 45.9489 15.0786 46.1917 15.5428C46.4346 16.007 46.5618 16.6988 46.3666 17.2055C46.1715 17.7123 45.2739 19.4501 44.69 20.8176C44.106 22.1851 43.5987 24.0417 43.4035 24.6148C43.2436 25.1131 43.0346 25.5986 42.7791 26.0661C42.623 26.3025 42.6418 26.5215 42.8962 26.6566C43.1506 26.7917 45.0528 27.3848 47.3033 26.6066C47.6935 26.4715 47.7369 26.1512 47.4406 26.0498C47.1443 25.9485 46.543 25.9322 46.0559 25.5606C45.5688 25.189 45.4315 24.5485 45.4907 23.8904C45.55 23.2323 46.1339 21.3881 46.7193 19.9918C47.3047 18.5956 48.1647 17.6147 48.8441 17.5947C49.5234 17.5746 49.9556 18.5956 50.1695 19.046C50.3835 19.4964 51.0469 22.2364 51.125 23.7377C51.203 25.2391 50.3647 25.6957 49.8573 25.7796C49.35 25.8634 48.727 25.7283 48.6808 25.144C48.6504 24.7549 48.98 24.5184 49.2329 24.7161C49.058 24.9576 49.1881 25.2954 49.522 25.2904C49.593 25.2885 49.6628 25.2742 49.7272 25.2484C49.7916 25.2225 49.8492 25.1855 49.8967 25.1398C49.9441 25.0941 49.9803 25.0405 50.0031 24.9823C50.0259 24.9241 50.0349 24.8625 50.0293 24.8012C50.0254 24.7076 49.999 24.6158 49.9517 24.5316C49.9044 24.4474 49.8373 24.3727 49.7547 24.3123C49.6721 24.2518 49.5758 24.207 49.472 24.1807C49.3682 24.1544 49.2592 24.1471 49.152 24.1594C48.3787 24.2382 47.9812 24.8675 47.9956 25.3917C48.0101 25.9159 48.2486 27.0082 50.0423 27.0082C51.31 27.0082 51.5239 26.6429 52.7135 26.5753C53.9031 26.5077 55.2473 26.9982 55.9888 26.9982C56.4224 26.9982 56.5106 26.9031 56.58 26.763C56.7245 26.4765 56.4181 26.2212 56.184 26.0361C55.7644 25.665 55.4506 25.2143 55.2675 24.7199C55.0146 24.0618 54.5853 22.0487 54.2933 21.1716C54.0014 20.2946 52.9693 18.2703 52.8306 17.965C52.6918 17.6597 52.3969 17.2706 52.9433 16.9516C53.5262 16.599 53.9862 16.1148 54.2731 15.5515C54.4971 15.0511 54.8094 15.0511 55.2675 14.9948C55.6202 14.9498 56.1753 15.0261 57.2377 14.7608C58.4099 14.7471 61.0883 15.1362 62.6247 15.9344C62.6295 15.8592 62.6102 15.7844 62.5689 15.7181C62.5275 15.6519 62.4658 15.5968 62.3906 15.5591V15.5791ZM47.6126 2.27576C47.6589 2.27576 47.7042 2.26387 47.7427 2.2416C47.7812 2.21933 47.8112 2.18767 47.8289 2.15063C47.8467 2.1136 47.8513 2.07285 47.8423 2.03353C47.8332 1.99421 47.8109 1.9581 47.7782 1.92975C47.7454 1.90141 47.7037 1.8821 47.6583 1.87428C47.6129 1.86646 47.5658 1.87047 47.523 1.88581C47.4802 1.90115 47.4436 1.92714 47.4179 1.96047C47.3922 1.9938 47.3784 2.03298 47.3784 2.07307C47.3784 2.09969 47.3845 2.12604 47.3963 2.15063C47.408 2.17522 47.4253 2.19757 47.447 2.21639C47.4688 2.23521 47.4946 2.25014 47.523 2.26033C47.5514 2.27051 47.5818 2.27576 47.6126 2.27576V2.27576ZM42.7777 4.6379C42.824 4.6379 42.8692 4.62601 42.9078 4.60374C42.9463 4.58147 42.9763 4.54981 42.994 4.51278C43.0117 4.47574 43.0164 4.43499 43.0073 4.39567C42.9983 4.35635 42.976 4.32024 42.9432 4.29189C42.9105 4.26355 42.8688 4.24424 42.8233 4.23642C42.7779 4.2286 42.7308 4.23262 42.688 4.24796C42.6453 4.2633 42.6087 4.28928 42.583 4.32261C42.5572 4.35594 42.5435 4.39513 42.5435 4.43522C42.5435 4.48897 42.5682 4.54052 42.6121 4.57853C42.656 4.61654 42.7156 4.6379 42.7777 4.6379V4.6379ZM52.9954 5.83648C52.9954 5.7964 52.9816 5.75721 52.9559 5.72388C52.9302 5.69055 52.8936 5.66457 52.8508 5.64923C52.808 5.63389 52.7609 5.62987 52.7155 5.6377C52.6701 5.64552 52.6284 5.66482 52.5956 5.69317C52.5629 5.72151 52.5406 5.75763 52.5315 5.79694C52.5225 5.83626 52.5271 5.87701 52.5449 5.91405C52.5626 5.95109 52.5926 5.98274 52.6311 6.00501C52.6696 6.02728 52.7149 6.03917 52.7612 6.03917C52.8233 6.03917 52.8829 6.01781 52.9268 5.9798C52.9707 5.94179 52.9954 5.89024 52.9954 5.83648V5.83648ZM51.2984 12.4187C51.2984 12.4588 51.3122 12.498 51.3379 12.5313C51.3636 12.5646 51.4002 12.5906 51.443 12.606C51.4858 12.6213 51.5328 12.6253 51.5783 12.6175C51.6237 12.6097 51.6654 12.5904 51.6982 12.562C51.7309 12.5337 51.7532 12.4976 51.7622 12.4582C51.7713 12.4189 51.7666 12.3782 51.7489 12.3411C51.7312 12.3041 51.7012 12.2725 51.6627 12.2502C51.6242 12.2279 51.5789 12.216 51.5326 12.216C51.4705 12.216 51.4109 12.2374 51.367 12.2754C51.3231 12.3134 51.2984 12.365 51.2984 12.4187V12.4187ZM59.8972 10.6971C59.8972 10.6571 59.8835 10.6179 59.8578 10.5845C59.832 10.5512 59.7955 10.5252 59.7527 10.5099C59.7099 10.4945 59.6628 10.4905 59.6174 10.4984C59.572 10.5062 59.5302 10.5255 59.4975 10.5538C59.4648 10.5822 59.4424 10.6183 59.4334 10.6576C59.4244 10.6969 59.429 10.7377 59.4467 10.7747C59.4645 10.8117 59.4945 10.8434 59.533 10.8657C59.5715 10.8879 59.6168 10.8998 59.6631 10.8998C59.7252 10.8998 59.7847 10.8785 59.8286 10.8405C59.8726 10.8025 59.8972 10.7509 59.8972 10.6971V10.6971ZM63.6987 12.2836C63.745 12.2836 63.7903 12.2717 63.8288 12.2494C63.8673 12.2272 63.8973 12.1955 63.915 12.1585C63.9328 12.1214 63.9374 12.0807 63.9284 12.0414C63.9193 12.002 63.897 11.9659 63.8643 11.9376C63.8315 11.9092 63.7898 11.8899 63.7444 11.8821C63.699 11.8743 63.6519 11.8783 63.6091 11.8936C63.5663 11.909 63.5297 11.935 63.504 11.9683C63.4783 12.0016 63.4645 12.0408 63.4645 12.0809C63.4645 12.1347 63.4892 12.1862 63.5331 12.2242C63.577 12.2622 63.6366 12.2836 63.6987 12.2836V12.2836ZM36.8297 11.7093C36.7834 11.7093 36.7382 11.7212 36.6997 11.7435C36.6612 11.7657 36.6311 11.7974 36.6134 11.8344C36.5957 11.8715 36.5911 11.9122 36.6001 11.9515C36.6091 11.9909 36.6314 12.027 36.6642 12.0553C36.6969 12.0837 36.7386 12.103 36.7841 12.1108C36.8295 12.1186 36.8766 12.1146 36.9194 12.0993C36.9621 12.0839 36.9987 12.0579 37.0244 12.0246C37.0502 11.9913 37.0639 11.9521 37.0639 11.912C37.0639 11.8582 37.0392 11.8067 36.9953 11.7687C36.9514 11.7307 36.8919 11.7093 36.8297 11.7093V11.7093ZM43.4975 13.2107C43.4975 13.2508 43.5112 13.2899 43.5369 13.3233C43.5627 13.3566 43.5992 13.3826 43.642 13.3979C43.6848 13.4133 43.7319 13.4173 43.7773 13.4095C43.8227 13.4016 43.8645 13.3823 43.8972 13.354C43.93 13.3256 43.9523 13.2895 43.9613 13.2502C43.9703 13.2109 43.9657 13.1701 43.948 13.1331C43.9303 13.0961 43.9002 13.0644 43.8617 13.0421C43.8232 13.0199 43.778 13.008 43.7316 13.008C43.6695 13.008 43.61 13.0293 43.5661 13.0674C43.5222 13.1054 43.4975 13.1569 43.4975 13.2107V13.2107ZM41.1183 8.83921C41.072 8.83921 41.0267 8.85109 40.9882 8.87336C40.9497 8.89564 40.9197 8.92729 40.902 8.96433C40.8843 9.00136 40.8796 9.04212 40.8887 9.08144C40.8977 9.12075 40.92 9.15687 40.9527 9.18521C40.9855 9.21356 41.0272 9.23286 41.0726 9.24068C41.1181 9.2485 41.1651 9.24449 41.2079 9.22915C41.2507 9.21381 41.2873 9.18783 41.313 9.1545C41.3387 9.12116 41.3525 9.08198 41.3525 9.04189C41.3525 8.98814 41.3278 8.93658 41.2839 8.89857C41.24 8.86056 41.1804 8.83921 41.1183 8.83921V8.83921ZM45.3939 10.5282C45.4402 10.5282 45.4855 10.5164 45.524 10.4941C45.5625 10.4718 45.5925 10.4402 45.6102 10.4031C45.6279 10.3661 45.6326 10.3253 45.6235 10.286C45.6145 10.2467 45.5922 10.2106 45.5594 10.1822C45.5267 10.1539 45.485 10.1346 45.4396 10.1268C45.3941 10.1189 45.3471 10.123 45.3043 10.1383C45.2615 10.1536 45.2249 10.1796 45.1992 10.213C45.1734 10.2463 45.1597 10.2855 45.1597 10.3256C45.1597 10.3793 45.1844 10.4309 45.2283 10.4689C45.2722 10.5069 45.3318 10.5282 45.3939 10.5282V10.5282ZM41.3539 14.388C41.3539 14.3479 41.3402 14.3087 41.3145 14.2754C41.2887 14.2421 41.2522 14.2161 41.2094 14.2007C41.1666 14.1854 41.1195 14.1814 41.0741 14.1892C41.0287 14.197 40.9869 14.2163 40.9542 14.2447C40.9214 14.273 40.8991 14.3091 40.8901 14.3485C40.8811 14.3878 40.8857 14.4285 40.9034 14.4656C40.9211 14.5026 40.9512 14.5342 40.9897 14.5565C41.0282 14.5788 41.0734 14.5907 41.1198 14.5907C41.1819 14.5907 41.2414 14.5693 41.2853 14.5313C41.3292 14.4933 41.3539 14.4417 41.3539 14.388V14.388ZM38.1176 16.346C38.1176 16.3059 38.1039 16.2667 38.0782 16.2334C38.0524 16.2001 38.0159 16.1741 37.9731 16.1588C37.9303 16.1434 37.8832 16.1394 37.8378 16.1472C37.7924 16.155 37.7506 16.1744 37.7179 16.2027C37.6851 16.231 37.6628 16.2672 37.6538 16.3065C37.6448 16.3458 37.6494 16.3865 37.6671 16.4236C37.6849 16.4606 37.7149 16.4923 37.7534 16.5145C37.7919 16.5368 37.8371 16.5487 37.8835 16.5487C37.9456 16.5487 38.0051 16.5273 38.049 16.4893C38.0929 16.4513 38.1176 16.3998 38.1176 16.346V16.346ZM61.691 13.2745C61.691 13.2344 61.6773 13.1952 61.6515 13.1619C61.6258 13.1285 61.5892 13.1026 61.5465 13.0872C61.5037 13.0719 61.4566 13.0679 61.4112 13.0757C61.3657 13.0835 61.324 13.1028 61.2913 13.1312C61.2585 13.1595 61.2362 13.1956 61.2272 13.2349C61.2182 13.2743 61.2228 13.315 61.2405 13.352C61.2582 13.3891 61.2882 13.4207 61.3268 13.443C61.3653 13.4653 61.4105 13.4772 61.4568 13.4772C61.5189 13.4772 61.5785 13.4558 61.6224 13.4178C61.6663 13.3798 61.691 13.3282 61.691 13.2745V13.2745ZM35.1849 33.9395C34.9452 34.1201 34.6351 34.2149 34.3176 34.2047C33.4879 34.2047 32.917 33.7243 32.917 32.9924C32.917 32.318 33.4099 31.78 34.306 31.78C34.6056 31.7702 34.899 31.8551 35.1314 32.019L34.9175 32.3243C34.7378 32.2166 34.5231 32.1613 34.3046 32.1666C33.8002 32.1666 33.42 32.4819 33.42 32.9924C33.4126 33.1013 33.4317 33.2104 33.476 33.3125C33.5203 33.4147 33.5889 33.5077 33.6773 33.5855C33.7657 33.6633 33.8719 33.7242 33.9892 33.7643C34.1065 33.8043 34.2321 33.8227 34.3581 33.8181C34.5905 33.8185 34.8166 33.7525 35.0013 33.6304L35.1849 33.9395ZM36.1215 31.8251C36.266 31.8188 36.6332 31.8088 36.9049 31.8088C37.5525 31.8088 37.7967 32.059 37.7967 32.3893C37.803 32.502 37.7692 32.6136 37.6999 32.7091C37.6307 32.8046 37.5293 32.8794 37.4094 32.9236V32.9298C37.5514 32.9563 37.6778 33.026 37.7653 33.1264C37.8529 33.2268 37.8958 33.3511 37.8864 33.4766C37.8864 33.9595 37.4527 34.1809 36.8746 34.1809C36.6259 34.1809 36.2776 34.1747 36.1186 34.1647L36.1215 31.8251ZM36.5985 32.2004V32.7947H36.9208C37.142 32.7947 37.3241 32.6971 37.3241 32.4819C37.3241 32.2905 37.1535 32.1904 36.8905 32.1904C36.7878 32.1941 36.6838 32.1979 36.5985 32.2042V32.2004ZM36.5985 33.1538V33.7793C36.7026 33.7901 36.8073 33.7956 36.9121 33.7956C37.2345 33.7956 37.4079 33.678 37.4079 33.4565C37.4079 33.2589 37.233 33.1575 36.9353 33.1575L36.5985 33.1538ZM38.9776 31.815H40.5488V32.2017H39.4546V32.7859H40.4317V33.1725H39.4546V33.7806H40.5864V34.1672H38.9776V31.815ZM41.3337 31.815H43.5712V32.2017H42.6909V34.1659H42.2139V32.2042H41.3337V31.815ZM45.8579 32.2017H45.0672L45.0123 32.6445C44.8533 34.0108 44.5006 34.2322 43.9658 34.1647L43.9774 33.7556C44.1869 33.7793 44.4616 33.7018 44.5815 32.2855L44.6206 31.815H46.3305V34.1684H45.8579V32.2017ZM48.026 32.6208C48.1262 32.6098 48.2271 32.6044 48.3281 32.6045C48.9988 32.6045 49.3211 32.9035 49.3211 33.3627C49.3211 33.8632 48.9178 34.1722 48.224 34.1722C47.9682 34.1722 47.708 34.1659 47.549 34.1659V31.8188H48.026V32.6208ZM48.026 33.0074V33.7806C48.1113 33.7806 48.1893 33.7906 48.2818 33.7906C48.6302 33.7906 48.8166 33.653 48.8166 33.3777C48.8166 33.1275 48.6229 32.9949 48.2891 32.9949C48.2006 32.9959 48.1124 33.0009 48.0245 33.0099L48.026 33.0074ZM49.6738 31.8163H50.1464V34.1684H49.6723L49.6738 31.8163ZM51.362 34.1659V31.8188H51.839V33.4903L53.2627 31.8188H53.6819V34.1684H53.1992V32.4994L51.7754 34.1672L51.362 34.1659ZM52.2379 31.2458C52.2697 31.3709 52.3738 31.441 52.5675 31.441C52.7612 31.441 52.8566 31.3909 52.8783 31.2458H53.3235C53.3119 31.5348 52.9939 31.7262 52.5675 31.7262C52.1021 31.7262 51.8188 31.531 51.7928 31.2458H52.2379ZM56.1825 31.8163H56.6682L57.5947 32.9135L58.4793 31.8163H58.9288V34.1684H58.4561V32.4694L57.599 33.5128H57.5296L56.6624 32.4794V34.1684H56.1854L56.1825 31.8163ZM60.1372 34.1684V31.8188H60.6142V33.4903L62.0379 31.8188H62.4571V34.1684H61.9801V32.4994L60.5564 34.1672L60.1372 34.1684ZM63.6727 34.1684V31.8188C63.8172 31.8188 64.2509 31.8125 64.4445 31.8125C65.2439 31.8125 65.4953 32.1879 65.4953 32.5632C65.4953 32.9386 65.1499 33.3252 64.5023 33.3252C64.4214 33.3252 64.2653 33.3252 64.1497 33.3152V34.1647L63.6727 34.1684ZM64.1497 32.2042V32.9261C64.2615 32.9364 64.3739 32.9418 64.4864 32.9423C64.7755 32.9423 64.9909 32.8247 64.9909 32.567C64.9909 32.3092 64.816 32.2017 64.4908 32.2017C64.3968 32.1979 64.2798 32.2004 64.1526 32.2042H64.1497Z" fill="#A4D55D"/>
</g>
<defs>
<clipPath id="clip0">
<rect width="96.8072" height="62" fill="white" transform="translate(0.747559)"/>
</clipPath>
</defs>
</svg>
