<svg width="223" height="165" viewBox="0 0 223 165" fill="none" xmlns="http://www.w3.org/2000/svg">
<g clip-path="url(#clip0)">
<path d="M62.9496 103.592C62.7881 103.064 62.8154 102.497 63.0269 101.988C63.2384 101.479 63.6208 101.059 64.1083 100.801L57.1161 100.592C57.9219 100.988 58.5779 102.29 58.2482 103.435C57.9652 104.434 52.3082 121.798 50.7766 126.513C45.3793 120.819 40.4748 114.073 38.7567 110.97L45.0231 103.342C46.235 101.893 48.4459 100.435 49.5879 99.8724L42.972 99.5028C43.7778 99.899 44.1474 101.257 43.5347 102.013L32.9566 115.179V100.861C32.988 100.422 33.1256 99.9964 33.3576 99.6218C33.5896 99.2471 33.909 98.9344 34.2884 98.7103L27.7524 97.9978C28.4916 98.4706 29.1941 99.4894 29.1941 99.9456V129.06C29.1941 129.516 28.4949 130.538 27.7524 131.008L34.2884 130.322C33.909 130.098 33.5896 129.785 33.3576 129.41C33.1256 129.036 32.988 128.61 32.9566 128.171V118.036L35.9033 114.449C42.5625 124.535 48.8188 130.252 56.6833 133.019L57.3492 132.566C55.6198 131.222 53.9783 129.768 52.4347 128.214L54.9819 120.02L64.7609 119.687L67.1349 126.443C67.398 127.372 66.5955 128.441 65.853 128.9L72.2758 128.584C71.6689 127.982 71.2126 127.245 70.944 126.433C70.944 126.433 63.2226 104.524 62.9496 103.592ZM55.5845 118.055L59.62 105.07L64.0784 117.762L55.5845 118.055ZM103.451 163.954L96.8882 164.078C97.3251 163.807 97.6579 163.397 97.8331 162.913C98.0082 162.43 98.0156 161.902 97.8538 161.414L91.098 142.875L84.7419 161.487C84.5841 162.019 84.6078 162.588 84.8091 163.104C85.0105 163.621 85.3781 164.056 85.8539 164.341L80.9428 164.604C81.662 163.964 81.8684 163.462 82.2746 162.453C82.2746 162.453 89.6763 141.31 90.0126 140.231C90.1401 139.726 90.1131 139.194 89.935 138.704C89.7569 138.214 89.436 137.789 89.0137 137.484L95.007 137.238C94.1813 137.634 93.6052 139.062 94.0081 140.291L101.846 161.797C102.226 162.576 102.665 163.558 103.451 163.954ZM167.046 103.452V127.092C167.078 127.532 167.215 127.957 167.447 128.332C167.679 128.706 167.999 129.019 168.378 129.243L161.842 128.91C162.585 128.437 163.284 127.418 163.284 126.959V112.348L153.495 112.562V126.37C153.526 126.809 153.664 127.234 153.896 127.609C154.128 127.984 154.447 128.296 154.827 128.521L148.291 128.317C149.033 127.845 149.732 126.826 149.732 126.37V103.588C149.732 103.132 149.033 102.11 148.291 101.637L154.827 101.437C154.447 101.661 154.128 101.974 153.896 102.349C153.664 102.723 153.526 103.149 153.495 103.588V110.614L163.284 110.401V103.625C163.284 103.169 162.585 102.146 161.842 101.677L168.378 101.301C167.999 101.524 167.68 101.837 167.448 102.211C167.216 102.585 167.078 103.009 167.046 103.448V103.452ZM194.955 100.651V129.333C194.986 129.772 195.124 130.198 195.356 130.572C195.588 130.947 195.907 131.26 196.287 131.484L189.747 130.855C190.487 130.382 191.189 129.363 191.189 128.903V101.068C191.189 100.612 190.49 99.5893 189.747 99.1165L196.283 98.5039C195.905 98.728 195.587 99.0404 195.355 99.4144C195.124 99.7884 194.987 100.213 194.955 100.651ZM223.004 134.85L216.468 133.878C217.207 133.405 217.909 132.386 217.909 131.927V104.218C217.516 104.993 217.143 105.676 216.877 106.142C212.882 113.164 207.401 123.123 206.619 124.818C205.582 127.209 204.801 129.702 204.288 132.256L203.955 132.196V132.31L201.674 132.03V100.036C201.674 99.5794 200.975 98.5572 200.232 98.0843L206.768 97.3385C206.389 97.5626 206.07 97.8753 205.838 98.25C205.606 98.6246 205.468 99.0499 205.437 99.4894V123.103C207.101 119.857 211.953 111.093 215.292 105.246C216.767 102.663 217.756 100.315 217.896 99.1032V98.0244C217.896 97.5683 217.197 96.546 216.454 96.0732L222.99 95.0743C222.611 95.2984 222.291 95.6112 222.059 95.9858C221.827 96.3604 221.69 96.7858 221.658 97.2253V132.703C221.692 133.143 221.832 133.568 222.066 133.942C222.3 134.316 222.622 134.628 223.004 134.85ZM111.652 127.665C114.427 126.921 116.868 125.26 118.581 122.953C122.023 118.315 122.693 113.424 119.41 108.137C116.253 103.082 108.948 100.665 103.095 103.045C98.4332 104.947 96.0758 108.496 95.1202 112.265C94.2146 116.79 95.3333 120.942 98.0503 123.946C101.327 127.578 106.917 129.02 111.652 127.665ZM98.3333 110.351C98.9126 107.267 100.684 104.947 104.41 104.261C107.576 103.678 110.217 104.507 112.577 106.458C117.169 110.257 118.591 114.506 118.204 118.845C117.775 120.842 117.205 122.144 116.18 123.3C113.37 126.423 108.698 126.916 104.733 124.398C101.736 122.491 100.158 120.093 99.0125 117.18C98.1284 115.023 97.8935 112.656 98.3366 110.367L98.3333 110.351ZM87.1958 127.448C84.8408 128.553 82.2924 129.187 79.6942 129.313C78.6324 129.365 77.5686 129.266 76.5344 129.02C75.3857 128.787 74.3968 128.314 73.7142 127.402C73.6709 127.34 73.6523 127.265 73.6621 127.19C73.672 127.115 73.7096 127.047 73.7675 126.999C74.7297 126.103 75.3024 125.667 76.288 124.715C76.6163 125.376 77.0773 125.963 77.6421 126.438C78.2069 126.913 78.8634 127.268 79.571 127.478C80.4267 127.695 82.9239 128.164 84.9749 126.479C87.8118 124.149 87.8217 118.821 84.8151 116.594C83.3035 115.475 81.0993 114.669 79.1381 115.165C78.4056 115.388 77.753 115.715 77.3768 116.447C77.3768 115.019 77.3768 113.66 77.3501 112.272C77.5438 112.58 77.7964 112.848 78.0935 113.059C78.3906 113.27 78.7263 113.42 79.0815 113.501C80.1267 113.516 81.17 113.405 82.1881 113.168C83.0487 113.019 83.8385 112.597 84.4406 111.964C85.0427 111.331 85.425 110.522 85.531 109.655C85.7418 108.473 85.6361 107.256 85.2246 106.129C84.3756 104.028 82.561 102.543 80.2302 102.609C79.0829 102.653 77.978 103.055 77.0705 103.758C76.1948 104.71 75.6687 104.883 75.2059 106.262C75.2059 106.282 75.1493 106.289 75.0893 106.319C74.9562 104.587 74.9928 103.711 74.7764 101.99C75.2311 102.072 75.6927 102.11 76.1548 102.103C76.7974 102.019 77.4328 101.888 78.056 101.71C80.4576 100.932 83.06 101.05 85.3811 102.043C86.4113 102.48 87.3423 103.121 88.1181 103.928C90.5786 106.475 90.4987 109.821 87.855 112.036C87.0464 112.67 86.1644 113.206 85.228 113.63C86.0138 113.99 86.6131 114.233 87.1858 114.526C90.572 116.271 92.2135 119.321 91.4011 122.66C90.8583 124.918 89.2801 126.436 87.1958 127.448ZM132.072 118.229C129.825 118.229 124.804 117.666 124.804 110.82V104.161C124.804 103.705 124.104 102.683 123.362 102.21L129.898 102.007C129.518 102.231 129.199 102.543 128.967 102.918C128.735 103.293 128.598 103.718 128.566 104.158V110.451C128.566 111.573 129.052 116.171 133.72 116.171C135.638 116.171 136.93 115.788 137.792 115.332V103.951C137.792 103.495 137.093 102.473 136.351 102L142.887 101.797C142.507 102.021 142.188 102.334 141.956 102.708C141.724 103.083 141.586 103.508 141.555 103.948V125.993C141.586 126.433 141.724 126.858 141.956 127.233C142.188 127.607 142.507 127.92 142.887 128.144L136.351 127.978C137.09 127.505 137.792 126.486 137.792 126.03V117.067C136.221 117.849 134.376 118.229 132.075 118.229H132.072ZM177.891 111.616V102.107C177.922 101.667 178.06 101.242 178.292 100.867C178.524 100.492 178.843 100.18 179.223 99.9556L172.687 100.428C173.429 100.901 174.128 101.92 174.128 102.376V127.582C174.128 128.038 173.429 129.06 172.687 129.533L179.223 129.979C179.179 129.959 179.143 129.929 179.103 129.906C180.728 130.065 182.945 130.275 184.027 130.339C185.852 130.445 189.634 128.364 189.328 122.93C188.985 116.774 181.017 112.831 177.894 111.616H177.891ZM185.256 125.038C184.96 126.703 183.288 128.514 180.658 128.304C179.918 128.244 178.713 128.124 177.907 128.041C177.896 127.972 177.89 127.902 177.887 127.831V113.314C179.362 114.133 181.78 115.645 183.182 117.107C186.065 120.09 185.539 123.459 185.259 125.041L185.256 125.038ZM123.325 159.057L126.448 162.286C122.972 166.079 116.55 164.744 115.144 164.357C113.64 163.945 112.095 163.696 110.536 163.615C109.046 163.592 107.556 163.662 106.075 163.825C106.616 162.934 106.911 161.916 106.93 160.875V138.942C106.93 138.486 106.231 137.464 105.489 136.994L120.165 137.014C120.783 137.046 121.393 136.86 121.887 136.488L124.241 140.877L123.715 141.21C123.715 141.21 121.854 138.879 117.958 138.879H110.779C110.779 138.902 110.779 138.926 110.779 138.949V145.971H116.46C117.212 145.986 117.956 145.802 118.615 145.439C119.274 145.075 119.826 144.545 120.215 143.9V149.69C119.583 148.988 118.218 147.723 116.46 147.723H110.773V161.82C111.593 161.816 112.413 161.88 113.223 162.013C113.996 162.12 117.928 162.539 120.069 162.083C122.21 161.627 122.839 160.182 123.332 159.057H123.325ZM146.369 154.062C146.369 154.062 147.978 155.987 147.568 157.835C147.348 158.834 146.596 159.589 145.943 160.085C145.415 161.403 144.537 162.55 143.403 163.403C142.269 164.256 140.922 164.782 139.51 164.923C136.704 165.256 133.684 164.57 130.91 161.238C128.137 157.905 125.942 152.101 127.814 145.282C129.728 138.29 135.978 136.908 138.495 136.838C140.184 136.809 141.856 137.182 143.373 137.927C144.179 138.346 145.094 138.733 145.97 138.593L146.286 139.085L142.184 142.841C141.904 141.752 140.992 138.846 137.586 138.846C134.18 138.846 132.322 140.637 131.529 144.446C130.347 150.153 131.466 155.727 133.794 158.997C135.791 161.807 137.656 162.683 139.867 162.789C141.698 162.876 143.29 162.123 144.482 160.155C144.035 159.443 143.433 158.198 143.702 156.982C144.109 155.128 146.379 154.059 146.379 154.059L146.369 154.062ZM208.776 95.1276C208.776 95.1276 208.143 91.505 209.998 88.9678C211.853 86.4306 215.499 85.9412 215.499 85.9412C215.499 85.9412 216.131 89.5638 214.277 92.101C212.422 94.6382 208.783 95.1343 208.783 95.1343L208.776 95.1276ZM42.3794 131.87C42.3794 131.87 41.4138 135.343 38.6935 136.845C36.9055 137.844 34.8078 137.724 33.5759 137.534C31.2751 138.723 26.4039 140.198 21.4528 140.198C15.363 140.198 9.95903 138.533 5.35752 132.413C1.01239 126.629 -2.07415 114.929 1.69496 103.265C5.88027 90.3529 15.05 87.9489 19.5283 87.9489C26.051 87.9489 26.3773 90.879 31.2785 91.1654L31.5282 91.7247L26.0077 96.9589C25.698 94.9145 24.1198 89.9667 19.2886 89.9667C14.4573 89.9667 10.0023 94.1188 7.7981 101.101C5.33753 108.899 6.0201 119.594 9.88577 127.382C12.8624 133.375 17.0877 136.072 20.96 137.194C23.3707 137.89 28.1054 137.963 32.7868 136.562C33.2329 135.453 34.2784 133.405 36.2063 132.343C38.9166 130.835 42.3794 131.87 42.3794 131.87Z" fill="#D2B887"/>
<path d="M122.676 4.6814C123.541 4.72434 124.371 5.03892 125.047 5.58041C124.394 6.1599 123.551 6.47993 122.678 6.47993C121.805 6.47993 120.962 6.1599 120.309 5.58041C120.984 5.03957 121.812 4.72503 122.676 4.6814ZM128.47 8.59372C128.47 8.59372 128.763 7.3884 128.193 6.50604C127.624 5.62369 126.405 5.39395 126.405 5.39395C126.405 5.39395 126.112 6.59927 126.682 7.48162C127.251 8.36398 128.47 8.59372 128.47 8.59372ZM121.887 7.47497C121.385 7.82377 121.023 8.33933 120.865 8.93002C121.155 9.03054 121.464 9.06708 121.77 9.03714C122.076 9.00719 122.372 8.91148 122.638 8.75654C122.903 8.60161 123.132 8.39111 123.309 8.13945C123.486 7.8878 123.606 7.60093 123.662 7.2985C123.068 7.14496 122.44 7.20629 121.887 7.47164V7.47497ZM111.502 6.83234C112.654 7.29183 113.953 6.75909 113.953 6.75909C113.953 6.75909 113.377 5.47719 112.224 5.0177C111.072 4.55821 109.774 5.09095 109.774 5.09095C109.774 5.09095 110.35 6.37285 111.502 6.83234ZM105.632 7.54155C105.698 6.85906 105.533 6.17411 105.162 5.59705C104.881 5.79538 104.643 6.04775 104.46 6.3394C104.278 6.63105 104.156 6.95612 104.101 7.2956C104.045 7.63508 104.059 7.98217 104.139 8.31654C104.22 8.65092 104.366 8.96588 104.57 9.243C105.104 8.81198 105.478 8.21395 105.632 7.54489V7.54155ZM102.968 6.83901C102.968 6.83901 103.697 5.78018 103.504 4.66142C103.311 3.54267 102.276 2.7935 102.276 2.7935C102.276 2.7935 101.546 3.85232 101.74 4.97108C101.933 6.08983 102.968 6.83901 102.968 6.83901ZM102.512 10.7014C102.833 10.005 102.868 9.21087 102.612 8.48855C102.355 7.76623 101.825 7.17303 101.137 6.83567C100.816 7.53202 100.78 8.32619 101.037 9.04851C101.294 9.77083 101.824 10.364 102.512 10.7014ZM106.075 13.102C106.1 12.7812 106.058 12.4587 105.952 12.1548C105.846 11.8509 105.678 11.5723 105.459 11.3365C105.24 11.1006 104.975 10.9127 104.679 10.7845C104.384 10.6562 104.066 10.5905 103.744 10.5915C103.719 10.9124 103.761 11.2349 103.867 11.5388C103.973 11.8426 104.141 12.1213 104.36 12.3571C104.579 12.5929 104.844 12.7809 105.139 12.9091C105.434 13.0373 105.753 13.103 106.075 13.102ZM100.012 8.63367C100.036 8.31282 99.9945 7.9903 99.8885 7.68643C99.7825 7.38256 99.6148 7.10392 99.3958 6.86808C99.1769 6.63223 98.9114 6.44429 98.6163 6.31608C98.3211 6.18787 98.0026 6.12218 97.6808 6.12314C97.656 6.44399 97.6979 6.76651 97.8038 7.07038C97.9098 7.37425 98.0775 7.65288 98.2965 7.88872C98.5154 8.12457 98.7808 8.31252 99.076 8.44073C99.3712 8.56894 99.6897 8.63463 100.012 8.63367ZM99.1292 11.1109C100.128 11.4272 101.197 10.8579 101.197 10.8579C101.197 10.8579 100.644 9.77907 99.6419 9.46608C98.6397 9.1531 97.5742 9.71914 97.5742 9.71914C97.5742 9.71914 98.127 10.7979 99.1292 11.1109ZM103.231 17.6703C103.467 17.3697 103.638 17.0241 103.735 16.6549C103.832 16.2856 103.853 15.9004 103.796 15.5228C103.739 15.1453 103.605 14.7833 103.404 14.4593C103.202 14.1352 102.936 13.8557 102.622 13.6381C102.386 13.9385 102.214 14.2841 102.117 14.6534C102.019 15.0228 101.999 15.4081 102.056 15.7858C102.113 16.1635 102.246 16.5255 102.449 16.8496C102.651 17.1737 102.917 17.453 103.231 17.6703ZM104.75 19.0022C104.669 19.6329 104.794 20.2728 105.106 20.8268C105.619 20.4415 105.968 19.8766 106.083 19.2451C106.198 18.6135 106.07 17.9619 105.725 17.4206C105.239 17.8297 104.897 18.3841 104.75 19.0022ZM105.768 21.7658C105.549 22.4 105.549 23.0894 105.768 23.7236C106.079 23.597 106.361 23.4101 106.599 23.1738C106.836 22.9375 107.025 22.6564 107.153 22.3469C107.282 22.0373 107.348 21.7053 107.347 21.3701C107.347 21.0349 107.28 20.7031 107.15 20.3939C106.544 20.6854 106.054 21.1721 105.758 21.7757L105.768 21.7658ZM118.221 28.5982C118.121 29.7968 119.024 30.8523 119.024 30.8523C119.024 30.8523 120.086 29.96 120.186 28.758C120.285 27.556 119.383 26.5038 119.383 26.5038C119.383 26.5038 118.321 27.3962 118.218 28.5982H118.221ZM126.542 22.6514C126.555 21.9147 126.32 21.1948 125.876 20.607C125.593 20.8439 125.359 21.1345 125.189 21.462C125.019 21.7896 124.916 22.1476 124.885 22.5154C124.854 22.8832 124.896 23.2535 125.009 23.6049C125.122 23.9563 125.303 24.2818 125.543 24.5626C126.08 24.0551 126.432 23.3822 126.542 22.6514ZM126.039 15.6858C125.468 15.2219 124.757 14.9629 124.021 14.95C124.035 15.3187 124.121 15.6811 124.275 16.0163C124.429 16.3515 124.648 16.6529 124.919 16.903C125.19 17.1531 125.508 17.3471 125.855 17.4736C126.201 17.6002 126.569 17.6568 126.938 17.6403C126.865 16.9068 126.548 16.2189 126.039 15.6858ZM123.249 15.5327C123.245 14.7965 122.996 14.0827 122.54 13.5049C122.263 13.7488 122.037 14.0452 121.875 14.3769C121.713 14.7086 121.619 15.0691 121.597 15.4375C121.575 15.8059 121.627 16.1749 121.749 16.5233C121.87 16.8717 122.06 17.1925 122.307 17.4672C122.828 16.9455 123.159 16.2645 123.249 15.5327ZM131.952 16.0121C131.119 16.0382 130.321 16.3561 129.698 16.9105C129.074 17.4649 128.666 18.2205 128.543 19.0454C129.376 19.0194 130.175 18.7015 130.798 18.1471C131.421 17.5927 131.829 16.8371 131.952 16.0121ZM128.773 20.9C128.44 21.6192 128.819 22.5049 128.819 22.5049C128.819 22.5049 129.745 22.2252 130.081 21.506C130.417 20.7868 130.035 19.9012 130.035 19.9012C130.035 19.9012 129.109 20.1808 128.773 20.9ZM135.375 12.9522C135.554 12.2799 135.518 11.5685 135.272 10.9178C134.669 11.2774 134.217 11.8448 134.002 12.5135C133.787 13.1822 133.823 13.9064 134.103 14.5504C134.684 14.165 135.129 13.6072 135.375 12.9555V12.9522ZM137.969 12.2064C138.375 11.7619 138.597 11.1801 138.592 10.5782C138.592 10.5782 137.516 10.5249 136.867 11.1242C136.462 11.5691 136.241 12.1509 136.248 12.7524C136.248 12.7524 137.323 12.8057 137.969 12.2064ZM137.23 16.2252C137.136 16.8195 137.271 17.4272 137.606 17.9267C137.606 17.9267 138.532 17.3773 138.741 16.5182C138.835 15.9229 138.701 15.3141 138.365 14.8135C138.365 14.8135 137.44 15.3629 137.23 16.2219V16.2252ZM140.709 22.7447C140.709 22.7447 140.906 23.8002 141.642 24.2929C142.168 24.5846 142.785 24.6667 143.37 24.5227C143.37 24.5227 143.173 23.4639 142.437 22.9744C141.911 22.6827 141.294 22.6007 140.709 22.7447ZM143.842 27.5527C144.785 27.6725 145.627 26.8668 145.627 26.8668C145.627 26.8668 144.938 25.8679 143.996 25.7513C143.053 25.6348 142.211 26.4372 142.211 26.4372C142.211 26.4372 142.9 27.4361 143.842 27.5527ZM145.953 28.9678C145.485 28.6311 144.908 28.4826 144.335 28.5515C144.335 28.5515 144.408 29.5771 145.054 30.1265C145.522 30.4634 146.1 30.6119 146.673 30.5427C146.673 30.5427 146.599 29.5171 145.953 28.9678ZM132.319 27.879C131.611 27.5425 130.816 27.4355 130.045 27.5726C129.317 27.7869 128.683 28.241 128.247 28.8612C128.954 29.1978 129.749 29.3049 130.521 29.1675C131.248 28.9533 131.882 28.4991 132.319 27.879ZM131.233 36.2929C132.485 36.4494 133.564 35.5871 133.564 35.5871C133.564 35.5871 132.625 34.4683 131.373 34.3118C130.121 34.1553 129.042 35.0177 129.042 35.0177C129.042 35.0177 129.981 36.1365 131.233 36.2929ZM132.768 30.839C133.442 30.6419 134.029 30.2216 134.433 29.647C133.78 29.3369 133.047 29.238 132.335 29.364C131.661 29.5615 131.075 29.9817 130.67 30.556C131.323 30.8665 132.056 30.9655 132.768 30.839ZM134.959 32.7402C135.624 32.7712 136.28 32.5699 136.814 32.1709C136.339 31.6725 135.717 31.3398 135.039 31.2219C134.373 31.1907 133.718 31.392 133.184 31.7913C133.658 32.288 134.279 32.6195 134.956 32.7369L134.959 32.7402ZM142.471 34.1786C141.875 34.5688 141.439 35.1594 141.242 35.8434C141.242 35.8434 142.451 36.1365 143.383 35.6104C143.98 35.221 144.417 34.6302 144.615 33.9456C144.615 33.9456 143.406 33.6525 142.474 34.1786H142.471ZM137.646 36.6792C136.447 37.0288 135.801 38.2574 135.801 38.2574C135.801 38.2574 137.1 38.9234 138.299 38.5671C139.497 38.2108 140.143 36.9888 140.143 36.9888C140.143 36.9888 138.845 36.3229 137.646 36.6792ZM142.201 38.8834C142.907 38.6344 143.507 38.1501 143.899 37.5116C143.189 37.2031 142.4 37.1274 141.645 37.2952C140.938 37.5442 140.339 38.0285 139.947 38.667C140.656 38.9754 141.445 39.0512 142.201 38.8834ZM144.165 39.6525C143.552 39.5794 142.933 39.7385 142.431 40.0987C142.431 40.0987 143.04 41.011 143.932 41.1908C144.545 41.2632 145.162 41.104 145.664 40.7447C145.664 40.7447 145.054 39.8323 144.162 39.6525H144.165ZM143.343 42.9056C143.37 43.4809 143.597 44.0288 143.986 44.4539C144.43 44.7954 144.986 44.9571 145.544 44.9067C145.517 44.3314 145.29 43.7836 144.901 43.3584C144.457 43.0172 143.901 42.8556 143.343 42.9056ZM140.633 44.1509C140.226 45.0166 140.686 46.0488 140.686 46.0488C140.686 46.0488 141.805 45.6792 142.214 44.8135C142.624 43.9478 142.161 42.9156 142.161 42.9156C142.161 42.9156 141.042 43.2852 140.633 44.1509ZM130.74 40.1986C130.74 40.1986 129.349 40.405 128.596 41.3573C127.844 42.3096 128.013 43.6448 128.013 43.6448C128.013 43.6448 129.405 43.4383 130.158 42.4861C130.91 41.5338 130.737 40.1986 130.737 40.1986H130.74ZM138.695 42.7358C138.194 42.9372 137.783 43.3118 137.536 43.7913C138.042 44.0211 138.611 44.075 139.151 43.9444C139.651 43.7431 140.063 43.3684 140.31 42.8889C139.804 42.6591 139.235 42.6052 138.695 42.7358ZM125.113 42.8556C125.666 42.8691 126.208 42.6968 126.652 42.3662C127.037 41.9858 127.273 41.4804 127.318 40.9411C126.764 40.9274 126.223 41.0998 125.779 41.4306C125.394 41.8118 125.157 42.3185 125.113 42.859V42.8556ZM137.017 34.2752C136.623 33.8934 136.122 33.6403 135.582 33.5493C135.051 33.5151 134.525 33.6567 134.083 33.9522C134.477 34.334 134.978 34.5871 135.518 34.6781C136.049 34.7123 136.575 34.5707 137.017 34.2752ZM133.068 21.7757C133.726 21.5395 134.291 21.0983 134.679 20.5171C134.984 19.911 135.069 19.2177 134.919 18.556C134.261 18.7924 133.696 19.2336 133.308 19.8146C133.004 20.4211 132.92 21.1144 133.071 21.7757H133.068ZM136.224 25.5948C136.839 25.4435 137.378 25.073 137.739 24.5527C137.192 24.1961 136.541 24.0342 135.891 24.0932C135.276 24.2447 134.738 24.6153 134.376 25.1353C134.923 25.4921 135.574 25.654 136.224 25.5948ZM132.339 23.0077C131.682 23.4972 131.207 24.1904 130.987 24.9788C131.832 25.0362 132.674 24.8341 133.401 24.3995C134.056 23.9096 134.53 23.2164 134.749 22.4283C133.905 22.3719 133.065 22.574 132.339 23.0077ZM137.023 14.2941C137.023 14.2941 135.662 14.3307 134.779 15.1498C134.228 15.7224 133.893 16.4685 133.83 17.2608C133.83 17.2608 135.195 17.2241 136.074 16.405C136.626 15.8326 136.961 15.0864 137.023 14.2941ZM98.4799 23.7336C98.4321 24.4029 98.6103 25.0688 98.986 25.6248C99.2555 25.4233 99.4823 25.1703 99.6531 24.8803C99.8239 24.5904 99.9353 24.2694 99.9809 23.9359C100.026 23.6025 100.005 23.2634 99.9184 22.9382C99.8317 22.6131 99.6811 22.3085 99.4754 22.0421C98.9619 22.4777 98.61 23.0735 98.4766 23.7336H98.4799ZM91.1248 16.2552C91.2785 15.9557 91.3711 15.6287 91.3973 15.2931C91.4235 14.9575 91.3828 14.62 91.2775 14.3003C91.1721 13.9806 91.0043 13.685 90.7838 13.4307C90.5632 13.1764 90.2943 12.9685 89.9927 12.819C89.8391 13.1185 89.7464 13.4455 89.7202 13.7811C89.694 14.1167 89.7347 14.4542 89.8401 14.7739C89.9454 15.0936 90.1132 15.3892 90.3338 15.6435C90.5543 15.8978 90.8232 16.1057 91.1248 16.2552ZM87.1293 23.9533C87.1293 23.9533 87.1293 22.5549 86.2902 21.6226C85.6844 21.0356 84.8986 20.6697 84.0594 20.5837C84.0594 20.5837 84.0594 21.9855 84.8984 22.9145C85.5043 23.5015 86.2901 23.8674 87.1293 23.9533ZM85.5244 24.7291C85.6424 25.2928 85.9446 25.8012 86.3834 26.1742C86.8633 26.4868 87.4348 26.6276 88.005 26.5737C87.887 26.01 87.5848 25.5016 87.1459 25.1287C86.666 24.8163 86.0945 24.6755 85.5244 24.7291ZM86.4201 33.859C86.001 33.4639 85.4619 33.2201 84.8885 33.1664C84.3169 33.1858 83.7689 33.3983 83.3335 33.7691C83.7529 34.1638 84.2918 34.4075 84.8652 34.4616C85.4367 34.4425 85.9849 34.23 86.4201 33.859ZM94.521 25.6381C93.9478 25.5122 93.3484 25.5973 92.8329 25.8778C93.1076 26.4012 93.5597 26.8096 94.1081 27.0299C94.6824 27.1561 95.283 27.071 95.7996 26.7902C95.5238 26.2664 95.0705 25.858 94.521 25.6381ZM91.6575 23.92C91.0688 23.9586 90.513 24.2053 90.0893 24.6159C89.7412 25.089 89.5756 25.672 89.6231 26.2574C90.213 26.2193 90.77 25.9726 91.1947 25.5615C91.5428 25.0884 91.7084 24.5055 91.6609 23.92H91.6575ZM92.2202 30.0665C91.7835 30.4578 91.5022 30.9932 91.4278 31.5748C92.0077 31.6538 92.597 31.5265 93.0926 31.2153C93.5294 30.824 93.8107 30.2886 93.885 29.7069C93.3051 29.6283 92.716 29.7555 92.2202 30.0665ZM104.207 34.8978C104.207 34.8978 104.147 33.7791 103.431 33.1631C102.715 32.5471 101.613 32.657 101.613 32.657C101.613 32.657 101.67 33.7757 102.389 34.3951C103.108 35.0144 104.207 34.8978 104.207 34.8978ZM84.965 29.3606C84.965 29.3606 84.1726 28.1753 82.9673 27.9389C81.762 27.7025 80.6033 28.5049 80.6033 28.5049C80.6033 28.5049 81.3957 29.6903 82.601 29.9267C83.8063 30.1631 84.9684 29.3606 84.9684 29.3606H84.965ZM100.421 48.0066C100.469 47.2652 100.267 46.5292 99.8484 45.9156C99.3765 45.3657 98.7342 44.9894 98.0237 44.8468C97.9766 45.5743 98.1696 46.2972 98.5731 46.9045C99.045 47.4544 99.6873 47.8307 100.398 47.9733L100.421 48.0066ZM88.2347 45.6825C88.1566 46.4027 88.3219 47.1283 88.7042 47.7436C89.2678 47.2795 89.6632 46.6431 89.8296 45.9322C89.9074 45.2121 89.7422 44.4866 89.3601 43.8712C88.7966 44.3353 88.4011 44.9717 88.2347 45.6825ZM85.864 47.6137C85.7277 48.2069 85.7957 48.8287 86.0572 49.3784C86.5771 49.0538 86.9742 48.5653 87.1859 47.9899C87.3225 47.3968 87.2544 46.7748 86.9928 46.2252C86.4728 46.5499 86.0757 47.0384 85.864 47.6137ZM84.1659 45.4761C83.5842 45.6562 83.0799 46.0268 82.7342 46.5282C83.2752 46.8145 83.8959 46.9129 84.4989 46.8079C85.0806 46.6276 85.5848 46.257 85.9306 45.7558C85.3898 45.4692 84.7689 45.3708 84.1659 45.4761ZM82.4745 49.8379C83.0858 49.8135 83.6715 49.5862 84.1393 49.1919C84.5519 48.7443 84.8017 48.1707 84.8485 47.5638C84.2372 47.5882 83.6515 47.8154 83.1837 48.2097C82.7712 48.6574 82.5213 49.2309 82.4745 49.8379ZM97.3478 48.7957C97.5543 48.2728 97.5777 47.6955 97.4144 47.1575C97.1816 46.6482 96.7808 46.2343 96.279 45.9855C96.0726 46.5084 96.0491 47.0858 96.2124 47.6237C96.4454 48.1329 96.8463 48.5467 97.3478 48.7957ZM90.9583 49.1287C90.8267 49.6756 90.8854 50.2511 91.1248 50.7602C91.3781 50.6362 91.6036 50.4619 91.7875 50.248C91.9715 50.0342 92.11 49.7851 92.1947 49.5161C92.2794 49.247 92.3085 48.9635 92.2803 48.6829C92.252 48.4022 92.1671 48.1302 92.0305 47.8834C91.5434 48.1654 91.1665 48.6045 90.9617 49.1287H90.9583ZM87.3524 34.6281C86.6379 34.6946 85.9641 34.9901 85.4312 35.4705C84.9587 36.0052 84.6745 36.6801 84.6221 37.3917C85.3365 37.3253 86.0104 37.0298 86.5433 36.5493C87.0158 36.0146 87.3 35.3398 87.3524 34.6281ZM87.1959 27.7291C86.5554 27.3117 85.7928 27.1228 85.0316 27.1931C85.1885 27.9451 85.5916 28.6235 86.177 29.1209C86.8175 29.5381 87.5801 29.7269 88.3413 29.657C88.1839 28.9051 87.7809 28.2269 87.1959 27.7291ZM89.5732 32.7236C89.5732 32.7236 88.8474 31.3118 87.5055 30.8224C86.1637 30.3329 84.7186 30.9589 84.7186 30.9589C84.7186 30.9589 85.4478 32.374 86.7863 32.8601C88.1248 33.3462 89.5732 32.7236 89.5732 32.7236ZM106.424 24.4228C105.678 25.4217 105.838 26.7868 105.838 26.7868C105.838 26.7868 107.207 26.5671 107.953 25.5815C108.698 24.5959 108.539 23.2175 108.539 23.2175C108.539 23.2175 107.17 23.4372 106.424 24.4228ZM117.479 29.5305C116.883 28.7798 116.068 28.2329 115.148 27.9655C115.059 28.9294 115.321 29.893 115.886 30.6787C116.452 31.4644 117.282 32.0192 118.224 32.2408C118.267 31.2813 118.008 30.3325 117.485 29.5271L117.479 29.5305ZM101.959 22.6414C101.959 22.6414 100.857 23.4838 100.671 24.7058C100.484 25.9278 101.28 27.0632 101.28 27.0632C101.28 27.0632 102.379 26.2208 102.569 24.9988C102.758 23.7768 101.959 22.6414 101.959 22.6414ZM114.076 7.72801C113.56 8.26244 113.24 8.95625 113.17 9.69583C113.541 9.72247 113.913 9.67399 114.264 9.5533C114.616 9.4326 114.939 9.24217 115.216 8.99343C115.492 8.74469 115.715 8.44277 115.871 8.10575C116.028 7.76873 116.115 7.40355 116.127 7.03212C115.383 7.02945 114.659 7.2795 114.076 7.74133V7.72801ZM114.788 12.0699C115.167 11.4366 115.317 10.6928 115.214 9.9622C114.849 10.0173 114.498 10.1465 114.184 10.3418C113.87 10.5372 113.6 10.7945 113.389 11.0981C113.178 11.4017 113.031 11.7452 112.957 12.1075C112.884 12.4698 112.885 12.8434 112.96 13.2053C113.681 13.0461 114.326 12.6455 114.788 12.0699ZM117.582 12.5227C117.581 11.7834 117.327 11.0668 116.863 10.4916C116.577 10.7266 116.342 11.0176 116.173 11.3466C116.003 11.6757 115.903 12.036 115.878 12.4052C115.853 12.7745 115.904 13.1449 116.027 13.4938C116.151 13.8427 116.345 14.1626 116.596 14.4339C117.139 13.9292 117.492 13.2532 117.595 12.5194L117.582 12.5227ZM111.079 19.5316C110.764 20.1118 110.692 20.7934 110.88 21.4265C111.067 22.0596 111.498 22.5924 112.078 22.9078C112.393 22.3276 112.465 21.646 112.277 21.0129C112.09 20.3798 111.659 19.847 111.079 19.5316ZM113.47 16.1054C114.239 15.8312 114.904 15.3251 115.374 14.657C114.612 14.3647 113.778 14.3159 112.987 14.5171C112.458 14.6917 111.978 14.9882 111.585 15.3828C111.82 14.9304 111.963 14.4358 112.005 13.9278C112.032 13.1267 111.834 12.3341 111.432 11.6403C110.94 12.2726 110.637 13.0309 110.556 13.8279C110.532 14.2688 110.585 14.7106 110.713 15.1331C110.429 14.8534 110.096 14.6277 109.731 14.4672C108.966 14.1798 108.13 14.1367 107.34 14.344C107.73 15.0651 108.335 15.6469 109.071 16.0088C109.481 16.1772 109.92 16.2632 110.363 16.2619C109.987 16.4993 109.676 16.8266 109.458 17.2141C109.158 17.886 109.096 18.6404 109.284 19.3518C109.973 19.1077 110.56 18.6384 110.949 18.0199C111.051 17.8228 111.124 17.6119 111.166 17.3939C111.252 17.7004 111.405 17.9837 111.615 18.223C112.341 19.0188 113.656 19.0055 113.656 19.0055C113.656 19.0055 113.796 17.6969 113.07 16.9012C112.627 16.4724 112.05 16.2081 111.435 16.152V16.1287C112.093 16.3208 112.791 16.3277 113.453 16.1487L113.47 16.1054ZM96.8517 44.617C96.2921 44.2012 95.6176 43.9686 94.9205 43.9511C94.6402 43.9594 94.3627 44.0111 94.0981 44.1043C94.3306 43.8408 94.5133 43.5373 94.6375 43.2086C94.8574 42.482 94.8411 41.7044 94.5909 40.9877C93.943 41.375 93.4347 41.9579 93.1392 42.6525C93.0021 43.057 92.9522 43.486 92.9927 43.9111C92.824 43.614 92.5865 43.3617 92.3002 43.1753C91.4777 42.6659 90.3723 42.9522 90.3723 42.9522C90.3723 42.9522 90.6021 44.0676 91.4245 44.5804C91.6473 44.7133 91.8938 44.8015 92.1503 44.8401C91.8685 44.9367 91.6123 45.0961 91.4012 45.3063C90.7552 45.9722 90.8218 47.0843 90.8218 47.0843C90.8218 47.0843 91.9372 47.1043 92.5832 46.4184C92.7301 46.2615 92.8484 46.08 92.9328 45.8823C92.9441 46.1488 93.0086 46.4103 93.1226 46.6514C93.5554 47.5271 94.6642 47.8634 94.6642 47.8634C94.6642 47.8634 95.0671 46.7813 94.6309 45.9056C94.481 45.6214 94.268 45.3754 94.0082 45.1864C94.3096 45.2937 94.6273 45.3478 94.9472 45.3462C95.642 45.3053 96.3072 45.0506 96.8517 44.617ZM99.5853 29.3007C99.5853 29.3007 98.3301 29.2608 97.5576 30.0133C97.3332 30.2394 97.1576 30.5091 97.0415 30.8057C97.0014 30.4678 96.8877 30.1427 96.7085 29.8534C96.1292 28.9278 94.864 28.6714 94.864 28.6714C94.864 28.6714 94.531 29.9167 95.1237 30.8457C95.283 31.0918 95.4888 31.3044 95.7296 31.4716C95.3934 31.4283 95.0517 31.4624 94.7308 31.5715C93.7319 31.9311 93.2591 33.0865 93.2591 33.0865C93.2591 33.0865 94.3778 33.6592 95.3667 33.2996C95.5942 33.2137 95.8049 33.0886 95.9893 32.93C95.8696 33.2054 95.8062 33.5021 95.8029 33.8024C95.8029 34.9045 96.7618 35.8002 96.7618 35.8002C96.7618 35.8002 97.7074 34.9045 97.7041 33.8024C97.695 33.44 97.6028 33.0846 97.4344 32.7635C97.6863 33.0225 97.9815 33.2355 98.3067 33.3928C99.0353 33.6935 99.8391 33.7609 100.608 33.5859C100.25 32.8833 99.6834 32.3087 98.986 31.9411C98.7412 31.8292 98.4825 31.7508 98.2168 31.708C98.4272 31.6094 98.6205 31.4779 98.7895 31.3185C99.5653 30.5693 99.5687 29.3207 99.5687 29.3207L99.5853 29.3007ZM129.202 32.3373C129.202 32.3373 127.957 32.1509 127.134 32.8068C126.946 32.9605 126.785 33.1465 126.662 33.3562C126.688 33.0562 126.654 32.7539 126.562 32.4672C126.209 31.425 125.02 30.8823 125.02 30.8823C125.02 30.8823 124.407 32.0343 124.764 33.0765C124.888 33.417 125.088 33.7246 125.35 33.9755C125.03 33.806 124.683 33.6933 124.324 33.6426C123.537 33.5894 122.753 33.7813 122.08 34.1919C122.643 34.7443 123.363 35.1084 124.141 35.2341C124.43 35.2645 124.721 35.2533 125.007 35.2008C124.847 35.3892 124.725 35.6077 124.651 35.8434C124.391 36.7191 124.94 37.6581 124.94 37.6581C124.94 37.6581 125.912 37.1786 126.172 36.3029C126.209 36.1739 126.23 36.0408 126.235 35.9067C126.358 36.1094 126.513 36.2905 126.695 36.4428C127.541 37.1353 128.819 36.9788 128.819 36.9788C128.819 36.9788 128.729 35.6936 127.884 35.001C127.7 34.858 127.494 34.7456 127.274 34.6681C127.644 34.6081 127.994 34.4584 128.293 34.2319C129.116 33.566 129.205 32.3274 129.205 32.3274L129.202 32.3373ZM138.309 18.879C138.229 19.0725 138.177 19.2766 138.155 19.4849C138.009 19.2413 137.807 19.0359 137.566 18.8856C136.77 18.4161 135.682 18.7857 135.682 18.7857C135.682 18.7857 135.878 19.9211 136.68 20.3906C136.921 20.5257 137.19 20.6032 137.466 20.617C137.128 20.6814 136.809 20.8227 136.534 21.0299C135.708 21.6958 135.615 22.9311 135.615 22.9311C135.615 22.9311 136.86 23.1209 137.683 22.465C137.857 22.322 138.007 22.1509 138.125 21.9589C138.082 22.2165 138.09 22.4801 138.149 22.7347C138.379 23.6537 139.341 24.203 139.341 24.203C139.341 24.203 139.927 23.2641 139.697 22.3451C139.603 22.0084 139.428 21.6998 139.188 21.4461C139.512 21.5746 139.858 21.6369 140.206 21.6292C140.927 21.5578 141.604 21.2499 142.131 20.7535C141.564 20.2965 140.861 20.0411 140.133 20.0277C139.956 20.0369 139.781 20.0659 139.61 20.1143C139.747 19.9549 139.859 19.7766 139.943 19.5848C140.373 18.586 139.897 17.4372 139.897 17.4372C139.897 17.4372 138.725 17.8834 138.299 18.8756L138.309 18.879ZM115.211 3.73912C115.307 3.7583 115.403 3.76943 115.501 3.77241C115.408 3.87416 115.326 3.98581 115.258 4.10537C114.97 4.70658 114.899 5.38911 115.058 6.03656C115.697 5.84019 116.248 5.42983 116.62 4.87453C116.757 4.62425 116.844 4.34932 116.876 4.06542C116.973 4.30344 117.117 4.51965 117.299 4.70138C117.965 5.3673 119.083 5.29738 119.083 5.29738C119.083 5.29738 119.083 4.18861 118.418 3.53601C118.225 3.35694 117.999 3.21874 117.752 3.12979C117.934 3.1188 118.113 3.0818 118.284 3.01992C118.823 2.77212 119.261 2.34814 119.526 1.81791C118.976 1.59808 118.368 1.57224 117.802 1.74466C117.625 1.81448 117.46 1.90984 117.312 2.02768C117.338 1.9106 117.351 1.79122 117.352 1.67141C117.303 1.0438 117.033 0.45399 116.59 0.0065918C116.144 0.452999 115.872 1.04292 115.82 1.67141C115.822 1.89916 115.865 2.12471 115.947 2.33734C115.819 2.27228 115.684 2.22308 115.544 2.19083C114.635 1.99438 113.729 2.6137 113.729 2.6137C113.729 2.6137 114.299 3.54932 115.211 3.74244V3.73912ZM136.907 42.0532C136.213 41.8323 135.467 41.8323 134.773 42.0532C134.426 42.1899 134.109 42.391 133.837 42.6459C133.808 42.4885 133.76 42.3353 133.694 42.1897C133.261 41.2907 132.162 40.9211 132.162 40.9211C132.162 40.9211 131.763 42.0099 132.195 42.9189C132.245 43.0182 132.303 43.1129 132.369 43.2019C132.256 43.2107 132.145 43.2297 132.036 43.2585C131.06 43.5249 130.494 44.5737 130.494 44.5737C130.494 44.5737 131.51 45.1931 132.492 44.9267C132.553 44.9067 132.613 44.8833 132.672 44.8568C132.64 44.9755 132.621 45.0971 132.615 45.2197C132.568 46.1919 133.377 47.0177 133.377 47.0177C133.377 47.0177 134.266 46.2685 134.316 45.2963C134.319 45.2397 134.319 45.183 134.316 45.1265C134.353 45.1531 134.383 45.1831 134.423 45.2064C135.295 45.7424 136.464 45.4295 136.464 45.4295C136.464 45.4295 136.221 44.2508 135.349 43.7147C135.236 43.6459 135.117 43.589 134.992 43.5449C135.105 43.5199 135.216 43.4877 135.325 43.4483C135.993 43.1585 136.555 42.6688 136.933 42.0466L136.907 42.0532ZM88.8607 22.2419C88.8973 22.2419 88.9273 22.2186 88.9639 22.2086C88.9487 22.2754 88.9387 22.3433 88.9339 22.4117C88.9553 22.9545 89.1744 23.4708 89.5499 23.8634C89.9617 23.5074 90.2302 23.014 90.3057 22.475C90.3096 22.3633 90.3006 22.2516 90.2791 22.142C90.3592 22.2034 90.445 22.257 90.5355 22.3018C91.0699 22.5086 91.661 22.5157 92.2003 22.3218C92.0235 21.7807 91.6568 21.3218 91.1681 21.0299C91.0184 20.9605 90.8589 20.9145 90.6953 20.8934C90.7836 20.8287 90.8651 20.755 90.9383 20.6736C91.2547 20.2594 91.4203 19.7496 91.4078 19.2286C90.889 19.2878 90.4061 19.5228 90.0393 19.8945C89.9423 20.0081 89.8616 20.1348 89.7996 20.2707C89.7783 20.1035 89.7311 19.9407 89.6598 19.7879C89.3816 19.31 88.9426 18.9465 88.4212 18.7624C88.2397 19.2837 88.2492 19.8524 88.4478 20.3673C88.5428 20.5584 88.6726 20.7301 88.8307 20.8734C88.7434 20.8758 88.6565 20.8858 88.571 20.9034C88.0336 21.0706 87.574 21.425 87.2758 21.9023C87.7448 22.2123 88.31 22.3424 88.8673 22.2685L88.8607 22.2419ZM118.105 10.6448C118.599 9.90181 118.789 8.99745 118.636 8.1183C118.483 7.23914 117.998 6.45226 117.282 5.92002C116.789 6.66323 116.599 7.56737 116.752 8.44629C116.905 9.32521 117.389 10.112 118.105 10.6448ZM123.718 9.27297C123.958 9.46558 124.236 9.60413 124.535 9.67914C124.833 9.75415 125.144 9.76385 125.446 9.70756C125.748 9.65128 126.035 9.53035 126.286 9.35305C126.537 9.17575 126.747 8.94626 126.901 8.68029C126.662 8.48768 126.383 8.34913 126.085 8.27412C125.787 8.19911 125.476 8.18941 125.174 8.2457C124.871 8.30198 124.585 8.42291 124.334 8.60021C124.082 8.77752 123.873 9.007 123.718 9.27297ZM121.388 10.1553C120.818 10.5315 120.396 11.0924 120.192 11.7436C120.839 11.9252 121.53 11.8697 122.14 11.5871C122.709 11.2109 123.131 10.6499 123.335 9.99883C122.688 9.81719 121.997 9.87269 121.388 10.1553ZM123.122 3.32957C124.471 2.42391 124.914 0.719138 124.914 0.719138C124.914 0.719138 123.169 0.482734 121.817 1.38507C120.465 2.2874 120.026 3.9955 120.026 3.9955C120.026 3.9955 121.77 4.2319 123.122 3.32957ZM90.1925 27.3529C90.0075 27.7812 89.9678 28.2583 90.0793 28.7114C90.5091 28.518 90.8661 28.1926 91.0982 27.7824C91.2829 27.354 91.3227 26.877 91.2114 26.4239C90.7806 26.617 90.4225 26.9424 90.1892 27.3529H90.1925ZM84.086 35.1076C83.5502 35.0463 83.0087 35.1546 82.5378 35.4172C82.1025 35.7241 81.7779 36.1631 81.6121 36.6692C82.1479 36.7305 82.6894 36.6222 83.1604 36.3595C83.5956 36.0527 83.9203 35.6137 84.086 35.1076ZM125.31 19.1254C125.443 18.9689 125.31 18.8889 125.173 18.9023C125.037 18.9156 124.378 18.9489 124.378 18.9489C124.378 18.9489 124.378 18.3662 124.378 18.0066C124.378 17.647 124.174 17.7802 124.075 17.9167C123.879 18.1637 123.656 18.3871 123.409 18.5826C123.059 18.4977 122.69 18.5519 122.379 18.734C122.068 18.916 121.841 19.2115 121.744 19.5582C121.597 19.9844 121.501 20.344 121.251 20.3773C121.001 20.4106 120.858 19.9278 120.802 19.1653C120.745 18.4028 120.319 17.6503 119.859 17.4805C119.4 17.3107 117.592 16.9178 117.256 17.1209C116.919 17.324 117.142 18.2563 117.961 18.7857C117.086 19.0321 117.648 19.9744 118.557 20.2807C117.928 20.6137 118.591 21.2796 119.197 21.4927C118.762 21.9175 118.411 22.4201 118.161 22.9744C115.497 22.6048 115.145 23.334 115.108 23.5238C115.051 23.8035 115.344 24.1298 115.657 24.253C115.324 24.586 114.838 25.162 115.085 25.5449C115.331 25.9278 116.083 25.6581 116.416 25.4317C116.356 25.619 116.363 25.8217 116.436 26.0043C116.51 26.1869 116.646 26.3378 116.819 26.4306C117.682 26.8035 118.694 25.2519 118.717 24.4328C118.93 24.4994 120.099 24.6792 120.445 24.4794C120.019 25.6148 120.625 26.041 120.905 25.8479C120.825 27.5127 121.634 27.263 121.88 27.0266C121.88 27.3296 121.914 28.5549 122.52 28.5316C123.126 28.5083 123.811 26.97 124.035 25.5349C124.258 24.0998 124.101 23.2341 123.419 22.5915C123.834 22.2396 124.167 21.8007 124.394 21.3059C124.622 20.8111 124.738 20.2725 124.734 19.728C124.734 19.728 125.193 19.3118 125.33 19.1553L125.31 19.1254ZM94.258 15.1797C94.4611 16.4816 94.7974 17.3007 95.4833 17.9766C94.6409 18.4694 94.7208 19.5149 95.0005 21.1864C95.2801 22.8579 96.1026 23.8501 96.562 23.7569C97.0215 23.6636 97.1247 23.0144 97.0215 22.3318C97.9971 23.2541 98.1769 21.849 97.9538 21.1198C98.9527 21.233 98.5265 20.1542 98.3567 19.7613C98.4699 19.8279 99.8284 19.9311 100.155 19.7846C100.761 21.8723 101.783 22.0421 102.109 21.7491C102.435 21.4561 102.332 21.1431 102.242 20.6936C102.669 20.7735 103.075 20.6503 103.198 20.3606C103.321 20.071 103.141 19.8545 102.865 19.6414C103.092 19.637 103.317 19.5954 103.531 19.5182C103.697 19.4616 104.104 19.1853 103.721 18.6326C103.338 18.0798 101.094 18.0932 100.634 18.1032C100.345 17.676 100.031 17.2668 99.6919 16.8779C99.8718 16.8583 100.045 16.7999 100.201 16.7068C100.356 16.6137 100.489 16.488 100.591 16.3385C100.619 16.1999 100.595 16.056 100.525 15.9335C100.454 15.8109 100.342 15.7182 100.208 15.6725C100.611 15.5393 101.207 15.0432 101.207 14.6736C101.207 14.304 100.847 14.1242 100.667 14.0443C100.847 13.9544 101.913 13.2818 101.453 12.6625C100.994 12.0432 98.7263 13.0321 98.4 13.3285C98.0737 13.6248 98.0404 14.2175 98.0404 14.6969C98.0404 15.1764 97.9405 15.6059 97.5909 15.6725C97.2413 15.7391 97.198 15.4361 97.0648 14.9866C97.3978 14.9433 97.3678 14.5937 97.2446 14.5937C97.1214 14.5937 96.9649 14.5138 96.6253 14.2608C96.4232 14.1029 96.185 13.9978 95.9322 13.9548C95.6794 13.9118 95.4199 13.9323 95.1769 14.0144C95.0446 13.7264 94.8979 13.4452 94.7374 13.172C94.5676 12.9156 94.4244 13.172 94.4244 13.3618C94.4244 13.5515 94.481 14.304 94.481 14.304L93.6154 14.1808C93.379 14.1475 93.3923 14.314 93.5154 14.4505C93.6386 14.5871 94.2679 15.203 94.2679 15.203L94.258 15.1797ZM108.655 32.5371C108.655 32.7769 108.655 33.1198 109.298 33.0765C109.821 32.9884 110.307 32.7506 110.697 32.3919C111.088 32.0332 111.366 31.569 111.499 31.0554C111.905 29.677 111.425 27.9722 110.33 27.2363C109.234 26.5005 107.51 26.8701 106.857 27.5194C106.138 28.2386 105.615 29.6303 106.258 30.6492C106.475 31.0169 106.794 31.3143 107.176 31.5056C107.558 31.6969 107.987 31.7741 108.412 31.728C108.839 31.6633 109.231 31.4542 109.522 31.1354C109.814 30.8167 109.987 30.4077 110.014 29.9766C110.029 29.9066 110.036 29.8352 110.037 29.7635C110.038 29.578 109.991 29.3954 109.9 29.2334C109.81 29.0714 109.679 28.9355 109.521 28.8387C109.362 28.742 109.182 28.6877 108.996 28.6811C108.811 28.6745 108.627 28.7159 108.462 28.8012C108.297 28.8865 108.157 29.0128 108.056 29.168C107.954 29.3232 107.894 29.502 107.882 29.6871C107.869 29.8722 107.905 30.0574 107.985 30.2248C108.065 30.3922 108.187 30.536 108.339 30.6426C108.119 30.7364 107.872 30.7409 107.649 30.655C107.427 30.5692 107.246 30.3999 107.147 30.1831C106.814 29.5837 106.654 28.0721 108.479 27.6525C110.303 27.233 110.873 29.3007 110.889 29.9833C110.906 30.6659 110.756 32.334 108.642 32.5305L108.655 32.5371ZM109.374 13.0821C109.371 12.9312 109.323 12.7846 109.238 12.66C109.153 12.5353 109.034 12.4379 108.895 12.3795C108.595 12.2164 107.563 11.8268 107.144 10.9278C106.724 10.0288 106.634 8.9067 107.456 8.14422C108.279 7.38173 109.747 7.69472 110.18 8.08429C110.392 8.25121 110.55 8.4763 110.635 8.73185C110.72 8.98741 110.729 9.26229 110.66 9.52269C110.564 9.76867 110.381 9.97054 110.146 10.0893C109.91 10.208 109.639 10.2351 109.384 10.1653C109.512 10.0632 109.612 9.93034 109.674 9.77914C109.737 9.62794 109.76 9.46336 109.741 9.30086C109.722 9.13836 109.663 8.98326 109.568 8.85011C109.473 8.71695 109.345 8.61011 109.198 8.5396C109.05 8.4691 108.887 8.43724 108.724 8.44702C108.561 8.4568 108.403 8.50789 108.264 8.59551C108.126 8.68312 108.013 8.80439 107.934 8.94793C107.856 9.09147 107.815 9.25258 107.816 9.41614C107.816 9.63961 107.861 9.86083 107.948 10.0666C108.035 10.2724 108.163 10.4585 108.324 10.6138C108.484 10.7692 108.674 10.8906 108.883 10.9708C109.092 11.0511 109.314 11.0886 109.537 11.081C110.826 11.081 111.535 10.1686 111.535 8.98329C111.535 7.79794 110.443 6.85898 108.872 6.85898C107.3 6.85898 105.968 8.26742 105.998 9.65921C106.028 11.051 106.927 12.8323 109.368 13.0721L109.374 13.0821ZM141.998 41.4605C141.718 41.2374 137.453 39.0466 132.395 38.5205L132.642 38.4206C137.206 36.4827 139.471 34.0055 140.166 32.9966C141.608 33.3795 142.83 32.8002 143.33 32.0577C143.829 31.3151 144.049 29.304 142.957 28.2386C142.344 27.6775 141.57 27.3234 140.745 27.2266C139.919 27.1298 139.085 27.2951 138.359 27.6992C136.694 28.5682 136.98 31.2186 137.446 31.6947C137.912 32.1709 138.179 32.1009 138.329 32.011C138.162 31.8612 137.596 31.3817 137.729 30.1531C137.806 29.5193 138.128 28.9407 138.625 28.5407C139.123 28.1407 139.757 27.951 140.393 28.0121C141.861 28.0854 142.893 28.9844 142.923 30.4827C142.945 30.7423 142.911 31.0033 142.824 31.2489C142.737 31.4944 142.6 31.7188 142.42 31.9075C142.241 32.0961 142.023 32.2447 141.782 32.3434C141.542 32.4422 141.282 32.4889 141.022 32.4805C140.29 32.4505 139.481 32.1942 139.511 31.2685C139.5 31.1169 139.54 30.9661 139.625 30.8397C139.709 30.7132 139.833 30.6181 139.977 30.5693C140.009 30.7377 140.086 30.8943 140.2 31.022C140.315 31.1497 140.462 31.2438 140.626 31.2942C140.79 31.3445 140.964 31.3492 141.13 31.3077C141.297 31.2663 141.449 31.1802 141.57 31.0587C141.691 30.9373 141.776 30.7852 141.817 30.6187C141.858 30.4522 141.853 30.2777 141.802 30.114C141.751 29.9503 141.657 29.8035 141.529 29.6895C141.401 29.5755 141.244 29.4987 141.075 29.4672C140.755 29.3749 140.415 29.3663 140.09 29.442C139.765 29.5178 139.465 29.6754 139.218 29.9C139.003 30.1048 138.843 30.3596 138.751 30.6415C138.658 30.9234 138.638 31.2238 138.69 31.5157C138.743 31.8076 138.867 32.082 139.051 32.3143C139.235 32.5465 139.475 32.7295 139.747 32.8468C138.062 34.7547 134.383 37.2885 130.947 38.0144C128.427 38.5632 125.821 38.5938 123.289 38.1043C123.086 37.4983 122.21 36.5993 120.775 36.6892C120.328 36.6911 119.895 36.8447 119.546 37.1247C119.198 37.4047 118.955 37.7947 118.857 38.2308C118.782 38.3957 118.753 38.5779 118.774 38.7579C118.795 38.9379 118.864 39.1089 118.974 39.2526C119.084 39.3963 119.232 39.5073 119.4 39.5737C119.569 39.6401 119.752 39.6594 119.931 39.6295C120.11 39.5997 120.277 39.5218 120.415 39.4043C120.552 39.2867 120.656 39.1338 120.713 38.9621C120.771 38.7903 120.781 38.6062 120.742 38.4292C120.703 38.2523 120.616 38.0894 120.492 37.9578C121.374 37.7846 122.053 38.5971 122.053 39.586C122.041 39.9897 121.896 40.3782 121.64 40.6907C121.384 41.0033 121.032 41.2224 120.638 41.314C120.236 41.3806 118.974 41.6969 118.125 40.2585C117.275 38.8201 118.418 37.2619 118.82 36.6193C119.223 35.9766 120.775 34.3717 121.537 33.4761C122.043 32.8801 123.202 31.5316 124.311 30.3762C124.613 30.1395 124.965 29.9758 125.34 29.8978C125.716 29.8198 126.104 29.8297 126.475 29.9267C127.554 30.1964 128.663 30.7957 130.098 31.9644C131.533 33.1331 133.061 34.1487 133.66 33.5826C133.271 33.3729 132.132 32.8934 131.33 32.0843C130.574 31.3285 128.14 28.8412 126.086 28.6714C126.976 27.9174 127.813 27.1018 128.589 26.2308C133.471 27.7691 138.282 26.5871 139.89 25.8246C139.77 25.6448 139.471 25.6148 138.891 25.7646C134.44 26.9367 131.003 26.1342 129.265 25.4317C129.638 24.9922 130.041 24.4961 130.487 23.9234C132.712 21.0699 133.048 16.6681 133.001 16.2885C132.955 15.9089 132.888 15.7491 132.642 15.7058C132.642 16.5582 132.685 19.5249 129.518 23.6104C129.046 24.2197 128.643 24.7025 128.276 25.1087C127.434 22.2286 127.944 17.4838 128.19 15.8224C128.743 15.9 129.305 15.8877 129.855 15.7857C132.249 15.3662 133.088 12.9123 132.955 11.5771C132.821 10.2419 132.242 8.344 129.931 8.0743C129.289 7.99772 129.182 8.35731 129.169 8.47718C129.482 8.47718 130.907 8.55043 131.639 9.53934C132.372 10.5282 132.492 12.4894 131.699 13.5083C130.907 14.5271 129.126 15.3063 127.91 14.8401C126.695 14.374 125.819 13.2186 126.129 11.7868C126.439 10.3551 127.641 10.122 128.197 10.1986C128.753 10.2752 129.768 10.6481 129.845 11.5305C129.879 11.715 129.854 11.9057 129.775 12.0757C129.696 12.2458 129.565 12.3869 129.402 12.4794C129.412 12.4256 129.418 12.371 129.419 12.3162C129.419 12.1379 129.37 11.9629 129.278 11.8107C129.185 11.6584 129.052 11.5347 128.893 11.4535C128.734 11.3722 128.556 11.3364 128.378 11.3502C128.201 11.3639 128.03 11.4267 127.886 11.5314C127.742 11.6361 127.629 11.7787 127.561 11.9435C127.493 12.1082 127.471 12.2886 127.499 12.4647C127.527 12.6408 127.604 12.8057 127.72 12.9411C127.836 13.0765 127.987 13.1772 128.157 13.2319H128.2C128.283 13.2571 128.369 13.2705 128.456 13.2719H128.543C128.854 13.2928 129.167 13.2499 129.461 13.1456C129.755 13.0414 130.025 12.8782 130.254 12.6659C130.897 11.9999 130.684 10.8645 130.494 10.4949C130.121 9.76242 129.389 9.16309 127.904 9.31292C126.239 9.49272 124.73 11.2141 125.24 13.132C125.384 13.745 125.691 14.3073 126.13 14.7589C126.569 15.2105 127.122 15.5344 127.73 15.6958C126.908 19.9578 127.304 24.1598 127.517 25.9078C125.992 27.3462 125.187 27.3096 122.903 29.5205C119.803 32.5171 118.994 34.708 116.726 34.5515C114.459 34.3951 113.943 28.152 113.729 25.2286C113.703 24.7698 113.717 24.3096 113.773 23.8534C114.106 22.8213 115.008 21.4994 116.603 21.3862C116.603 21.1398 116.423 20.9134 115.937 21.0033C115.303 21.1792 114.705 21.4643 114.169 21.8457C114.586 20.4399 115.163 19.0869 115.89 17.8135C116.396 16.9678 117.379 15.9389 118.221 14.5504C119.25 13.8845 121.954 12.8557 123.905 12.5527C123.846 12.4233 123.745 12.3174 123.619 12.2522C123.493 12.187 123.348 12.1661 123.209 12.1931C121.702 12.4628 120.226 12.8833 118.804 13.4483C119.381 12.1081 119.81 10.7092 120.086 9.27629C120.152 8.61036 120.062 8.44389 119.773 8.35399C119.729 9.35288 118.92 11.6836 118.244 13.1154C117.568 14.5471 116.133 15.6758 114.875 17.9666C113.764 20.1252 112.942 22.42 112.428 24.7924C110.989 24.2297 109.328 21.1764 109.015 20.4639C108.702 19.7513 107.826 17.2541 106.185 15.2763C105.053 13.917 103.729 12.7292 102.256 11.7502C102.128 11.6938 101.99 11.6646 101.851 11.6646C101.712 11.6646 101.574 11.6938 101.447 11.7502C103.155 12.6492 105.039 14.8934 105.961 16.1753C106.884 17.4572 107.826 19.8379 108.385 21.5027C108.945 23.1675 110.024 24.3562 111.049 25.4783C112.075 26.6004 112.801 28.8079 112.734 30.9123C112.667 33.0166 110.846 34.7313 109.611 34.7979C108.375 34.8645 107.367 33.203 105.342 31.3151C105.049 31.0421 104.756 30.7857 104.463 30.536C105.519 25.9711 104.746 22.2585 104.333 21.1431C104.333 21.1431 103.974 20.7835 104.267 22.5815C104.533 24.2164 104.09 28.415 103.671 29.8834C102.59 29.0235 101.454 28.2349 100.271 27.5227C99.3955 27.0066 96.7019 25.5249 94.9938 23.5271C93.2857 21.5294 91.9605 17.8235 91.8506 17.0144C91.6475 17.1276 91.5177 17.3973 91.6276 17.9566C92.1381 19.7796 92.8776 21.5305 93.8284 23.1675C94.9505 24.9422 97.6242 27.6126 98.6797 28.2652C99.7351 28.9178 102.342 30.8024 103.531 32.0144C104.72 33.2263 106.001 35.384 106.225 36.5293C104.501 35.977 102.678 35.801 100.881 36.0133C99.7902 36.2134 98.7631 36.6699 97.8839 37.3451C96.4089 37.0035 95.022 36.3561 93.8129 35.4447C92.6039 34.5333 91.5996 33.3783 90.8651 32.0543C90.8494 31.1957 91.0087 30.3428 91.3332 29.5477C91.6578 28.7525 92.1409 28.0318 92.753 27.4295C92.46 27.2497 92.1903 27.4528 92.0138 27.6326C91.8373 27.8124 90.6087 29.2974 90.2724 30.9189C88.9073 27.9722 88.6576 24.9422 88.5544 23.7935C88.1948 23.8168 88.1515 24.0865 88.1515 24.3329C88.2522 26.6326 88.7013 28.9037 89.4833 31.0687C90.386 33.4029 91.8607 35.4729 93.7718 37.0887C94.6708 37.7846 96.2857 37.9411 95.7496 38.7069C95.2136 39.4727 94.1314 38.7968 91.7308 40.122C90.9031 40.5895 90.1226 41.1359 89.4001 41.7535L88.8973 41.1143C89.6564 40.2386 89.5998 38.8834 89.3568 37.9078C90.8684 38.2674 91.9306 37.8778 91.9472 37.3085C91.9639 36.7391 90.975 36.5293 90.3157 36.7391C90.7652 36.4394 91.4844 35.4972 91.0482 35.091C90.612 34.6847 90.0493 35.091 89.6864 35.4938C89.7164 35.2408 89.8063 34.2818 88.9239 34.3251C88.0416 34.3684 88.2813 36.1964 88.4744 36.9888C87.4756 37.9478 85.1648 38.9866 84.7153 39.0832C84.0497 39.2429 83.4327 39.5616 82.9173 40.0121C82.7072 40.2595 82.5752 40.5636 82.5378 40.886C82.5005 41.2084 82.5596 41.5346 82.7076 41.8235C82.5952 42.066 82.5006 42.3164 82.4246 42.5726C82.3646 42.8756 82.5078 42.8756 82.6044 42.7957C82.7542 42.6759 83.1737 42.243 83.1737 42.243C83.2131 42.471 83.2387 42.7012 83.2503 42.9322C83.2503 43.172 83.4301 43.1287 83.4734 43.0221C83.5498 42.7954 83.655 42.5794 83.7864 42.3795C83.9362 42.1997 84.7153 41.93 85.3579 41.8701C85.9306 41.8168 87.5222 42.0299 88.4778 41.4672L89.0172 42.0798C88.2711 42.7335 87.5765 43.4437 86.9395 44.2042C86.6265 44.607 86.5133 45.0565 86.7164 45.203C88.5199 42.8757 90.996 41.1598 93.8085 40.2885C94.7607 40.0454 95.4966 40.0255 96.4222 40.5349C96.5287 43.5316 98.653 44.4639 99.7518 44.374C100.851 44.2841 101.66 43.8113 101.976 42.8923C102.115 42.4824 102.15 42.0446 102.079 41.6177C102.009 41.1909 101.834 40.788 101.57 40.445L101.55 40.4716C101.416 40.3551 101.256 40.2728 101.083 40.2317C100.91 40.1907 100.73 40.1921 100.558 40.2358C100.386 40.2796 100.227 40.3643 100.095 40.4829C99.9627 40.6015 99.8613 40.7503 99.7993 40.9167C99.7372 41.083 99.7164 41.2619 99.7386 41.4381C99.7608 41.6142 99.8253 41.7824 99.9267 41.9281C100.028 42.0739 100.163 42.1929 100.321 42.275C100.478 42.3571 100.653 42.3998 100.831 42.3995C100.9 42.3993 100.969 42.3926 101.037 42.3795C101.01 42.9189 100.498 43.1853 99.9749 43.1853C99.3689 43.1853 98.643 42.3762 98.6064 41.1409C98.5698 39.9056 99.7285 38.6703 101.27 38.6703C102.812 38.6703 104.124 40.1287 104.683 41.364C105.242 42.5993 105.535 44.4406 105.086 45.7891C104.636 47.1376 102.569 51.7624 101.223 55.4017C99.8783 59.041 98.7096 63.9822 98.2601 65.5071C97.8916 66.8332 97.4104 68.1254 96.8217 69.3695C96.4621 69.9988 96.5054 70.5815 97.0914 70.9411C97.6774 71.3007 102.059 72.879 107.243 70.8079C108.142 70.4483 108.242 69.5959 107.56 69.3262C106.877 69.0565 105.492 69.0133 104.37 68.0244C103.248 67.0354 102.932 65.3307 103.068 63.5793C103.205 61.8279 104.55 56.92 105.898 53.2042C107.247 49.4883 109.228 46.8779 110.793 46.8246C112.358 46.7713 113.353 49.4883 113.846 50.687C114.339 51.8856 115.867 59.1775 116.047 63.1731C116.227 67.1686 114.295 68.3839 113.127 68.607C111.958 68.8301 110.523 68.4705 110.417 66.9156C110.347 65.8801 111.106 65.2508 111.688 65.7768C111.286 66.4195 111.585 67.3185 112.354 67.3052C112.518 67.3002 112.679 67.2622 112.827 67.1933C112.975 67.1244 113.108 67.0262 113.217 66.9044C113.327 66.7827 113.41 66.6401 113.463 66.4852C113.515 66.3303 113.536 66.1663 113.523 66.0033C113.514 65.7543 113.453 65.5099 113.344 65.2858C113.235 65.0618 113.081 64.863 112.89 64.7021C112.7 64.5413 112.478 64.422 112.239 64.3519C112 64.2819 111.749 64.2625 111.502 64.2952C109.721 64.5049 108.805 66.1797 108.838 67.5749C108.872 68.97 109.421 71.8767 113.553 71.8767C116.473 71.8767 116.966 70.9045 119.706 70.7247C122.446 70.5449 125.543 71.8501 127.251 71.8501C128.25 71.8501 128.453 71.5971 128.613 71.2241C128.946 70.4616 128.24 69.7824 127.7 69.2896C126.734 68.302 126.011 67.1027 125.589 65.7868C125.007 64.0354 124.018 58.6781 123.345 56.344C122.673 54.0099 120.295 48.6226 119.976 47.8101C119.656 46.9977 118.977 45.9622 120.235 45.1131C121.578 44.1749 122.638 42.8862 123.299 41.3873C123.815 40.0554 124.534 40.0554 125.589 39.9056C126.402 39.7857 127.68 39.9888 130.128 39.283C132.828 39.2463 138.998 40.2818 142.537 42.4061C142.548 42.2061 142.504 42.0069 142.408 41.8306C142.313 41.6543 142.171 41.5078 141.998 41.4073V41.4605ZM107.956 6.05654C108.063 6.05654 108.167 6.02491 108.256 5.96564C108.344 5.90637 108.413 5.82212 108.454 5.72356C108.495 5.62499 108.506 5.51655 108.485 5.41191C108.464 5.30728 108.413 5.21117 108.337 5.13573C108.262 5.06029 108.166 5.00892 108.061 4.98811C107.957 4.96729 107.848 4.97797 107.75 5.01879C107.651 5.05962 107.567 5.12876 107.507 5.21747C107.448 5.30617 107.417 5.41046 107.417 5.51714C107.417 5.58798 107.43 5.65811 107.458 5.72356C107.485 5.789 107.524 5.84847 107.575 5.89855C107.625 5.94864 107.684 5.98837 107.75 6.01548C107.815 6.04259 107.885 6.05654 107.956 6.05654ZM96.8184 12.3429C96.9251 12.3429 97.0294 12.3112 97.1181 12.252C97.2068 12.1927 97.2759 12.1085 97.3167 12.0099C97.3576 11.9113 97.3683 11.8029 97.3475 11.6983C97.3266 11.5936 97.2753 11.4975 97.1998 11.4221C97.1244 11.3466 97.0283 11.2953 96.9237 11.2744C96.819 11.2536 96.7106 11.2643 96.612 11.3051C96.5134 11.346 96.4292 11.4151 96.3699 11.5038C96.3107 11.5925 96.279 11.6968 96.279 11.8035C96.279 11.9466 96.3359 12.0837 96.437 12.1849C96.5382 12.2861 96.6754 12.3429 96.8184 12.3429ZM120.355 15.5327C120.355 15.426 120.324 15.3217 120.264 15.233C120.205 15.1443 120.121 15.0752 120.022 15.0343C119.924 14.9935 119.815 14.9828 119.711 15.0036C119.606 15.0245 119.51 15.0758 119.435 15.1513C119.359 15.2267 119.308 15.3228 119.287 15.4274C119.266 15.5321 119.277 15.6405 119.318 15.7391C119.358 15.8377 119.428 15.9219 119.516 15.9812C119.605 16.0404 119.709 16.0721 119.816 16.0721C119.959 16.0721 120.096 16.0152 120.197 15.9141C120.299 15.8129 120.355 15.6757 120.355 15.5327ZM116.446 33.0499C116.446 33.1566 116.478 33.2609 116.537 33.3496C116.597 33.4383 116.681 33.5074 116.779 33.5482C116.878 33.589 116.986 33.5997 117.091 33.5789C117.196 33.5581 117.292 33.5067 117.367 33.4313C117.443 33.3559 117.494 33.2597 117.515 33.1551C117.536 33.0505 117.525 32.942 117.484 32.8435C117.443 32.7449 117.374 32.6607 117.285 32.6014C117.197 32.5421 117.092 32.5105 116.986 32.5105C116.843 32.5105 116.706 32.5673 116.604 32.6685C116.503 32.7696 116.446 32.9068 116.446 33.0499ZM136.254 28.4683C136.254 28.3616 136.223 28.2573 136.163 28.1686C136.104 28.0799 136.02 28.0108 135.921 27.97C135.823 27.9291 135.714 27.9185 135.61 27.9393C135.505 27.9601 135.409 28.0115 135.333 28.0869C135.258 28.1623 135.207 28.2584 135.186 28.3631C135.165 28.4677 135.176 28.5762 135.216 28.6747C135.257 28.7733 135.326 28.8575 135.415 28.9168C135.504 28.9761 135.608 29.0077 135.715 29.0077C135.858 29.0077 135.995 28.9509 136.096 28.8497C136.197 28.7486 136.254 28.6114 136.254 28.4683ZM145.011 32.6903C145.118 32.6903 145.222 32.6586 145.311 32.5994C145.399 32.5401 145.469 32.4559 145.509 32.3573C145.55 32.2587 145.561 32.1503 145.54 32.0457C145.519 31.941 145.468 31.8449 145.392 31.7695C145.317 31.694 145.221 31.6427 145.116 31.6218C145.012 31.601 144.903 31.6117 144.805 31.6525C144.706 31.6934 144.622 31.7625 144.563 31.8512C144.503 31.9399 144.472 32.0442 144.472 32.1509C144.472 32.2939 144.528 32.4311 144.63 32.5323C144.731 32.6334 144.868 32.6903 145.011 32.6903ZM83.1171 31.162C83.0104 31.162 82.9061 31.1936 82.8174 31.2529C82.7287 31.3121 82.6596 31.3964 82.6188 31.495C82.5779 31.5935 82.5673 31.702 82.5881 31.8066C82.6089 31.9112 82.6603 32.0074 82.7357 32.0828C82.8111 32.1582 82.9073 32.2096 83.0119 32.2304C83.1165 32.2512 83.225 32.2406 83.3235 32.1997C83.4221 32.1589 83.5063 32.0898 83.5656 32.0011C83.6249 31.9123 83.6565 31.8081 83.6565 31.7014C83.6565 31.5583 83.5997 31.4211 83.4985 31.32C83.3974 31.2188 83.2602 31.162 83.1171 31.162ZM98.4766 35.1575C98.4766 35.2642 98.5082 35.3685 98.5675 35.4572C98.6267 35.5459 98.711 35.6151 98.8095 35.6559C98.9081 35.6967 99.0166 35.7074 99.1212 35.6866C99.2258 35.6658 99.3219 35.6144 99.3974 35.539C99.4728 35.4635 99.5242 35.3674 99.545 35.2628C99.5658 35.1581 99.5551 35.0497 99.5143 34.9511C99.4735 34.8526 99.4043 34.7683 99.3156 34.709C99.2269 34.6498 99.1226 34.6181 99.016 34.6181C98.8729 34.6181 98.7357 34.675 98.6345 34.7761C98.5334 34.8773 98.4766 35.0145 98.4766 35.1575ZM92.996 23.5238C92.8893 23.5238 92.7851 23.5554 92.6964 23.6147C92.6077 23.674 92.5385 23.7582 92.4977 23.8568C92.4569 23.9553 92.4462 24.0638 92.467 24.1684C92.4878 24.2731 92.5392 24.3692 92.6146 24.4446C92.6901 24.5201 92.7862 24.5714 92.8908 24.5922C92.9954 24.6131 93.1039 24.6024 93.2024 24.5615C93.301 24.5207 93.3853 24.4516 93.4445 24.3629C93.5038 24.2742 93.5354 24.1699 93.5354 24.0632C93.5354 23.9201 93.4786 23.7829 93.3774 23.6818C93.2763 23.5806 93.1391 23.5238 92.996 23.5238ZM102.845 28.0188C102.952 28.0188 103.056 27.9872 103.145 27.9279C103.233 27.8686 103.303 27.7844 103.343 27.6858C103.384 27.5873 103.395 27.4788 103.374 27.3742C103.353 27.2695 103.302 27.1734 103.226 27.098C103.151 27.0226 103.055 26.9712 102.95 26.9504C102.846 26.9296 102.737 26.9402 102.639 26.9811C102.54 27.0219 102.456 27.091 102.397 27.1797C102.337 27.2684 102.306 27.3727 102.306 27.4794C102.306 27.6225 102.362 27.7597 102.464 27.8608C102.565 27.962 102.702 28.0188 102.845 28.0188ZM93.5388 38.2907C93.5388 38.184 93.5071 38.0798 93.4479 37.9911C93.3886 37.9023 93.3043 37.8332 93.2058 37.7924C93.1072 37.7516 92.9988 37.7409 92.8941 37.7617C92.7895 37.7825 92.6934 37.8339 92.618 37.9093C92.5425 37.9847 92.4911 38.0809 92.4703 38.1855C92.4495 38.2901 92.4602 38.3986 92.501 38.4971C92.5418 38.5957 92.611 38.68 92.6997 38.7392C92.7884 38.7985 92.8927 38.8301 92.9994 38.8301C93.1424 38.8301 93.2796 38.7733 93.3808 38.6721C93.4819 38.571 93.5388 38.4338 93.5388 38.2907ZM86.0838 43.5016C86.0838 43.3949 86.0521 43.2906 85.9929 43.2019C85.9336 43.1132 85.8494 43.0441 85.7508 43.0033C85.6523 42.9624 85.5438 42.9518 85.4392 42.9726C85.3345 42.9934 85.2384 43.0448 85.163 43.1202C85.0875 43.1956 85.0362 43.2917 85.0154 43.3964C84.9945 43.501 85.0052 43.6095 85.0461 43.708C85.0869 43.8066 85.156 43.8908 85.2447 43.9501C85.3334 44.0094 85.4377 44.041 85.5444 44.041C85.6874 44.041 85.8246 43.9842 85.9258 43.883C86.0269 43.7819 86.0838 43.6447 86.0838 43.5016ZM140.386 35.3274C140.386 35.2207 140.355 35.1164 140.295 35.0277C140.236 34.939 140.152 34.8698 140.053 34.829C139.955 34.7882 139.846 34.7775 139.742 34.7983C139.637 34.8191 139.541 34.8705 139.465 34.9459C139.39 35.0214 139.339 35.1175 139.318 35.2221C139.297 35.3268 139.308 35.4352 139.349 35.5338C139.389 35.6323 139.458 35.7166 139.547 35.7758C139.636 35.8351 139.74 35.8668 139.847 35.8668C139.99 35.8668 140.127 35.8099 140.228 35.7088C140.329 35.6076 140.386 35.4704 140.386 35.3274ZM79.328 90.3229C78.776 90.8035 78.0617 91.0559 77.3303 91.0288C75.4191 91.0288 74.1039 89.7502 74.1039 87.8024C74.1039 86.0077 75.2393 84.576 77.3036 84.576C77.9936 84.5498 78.6695 84.7759 79.2048 85.2119L78.7121 86.0244C78.2982 85.7377 77.8036 85.5908 77.3003 85.6048C76.1383 85.6048 75.2626 86.4439 75.2626 87.8024C75.2456 88.0923 75.2895 88.3825 75.3916 88.6544C75.4937 88.9263 75.6516 89.1737 75.8553 89.3808C76.0589 89.5879 76.3036 89.75 76.5737 89.8566C76.8439 89.9632 77.1334 90.0121 77.4235 89.9999C77.9589 90.0009 78.4796 89.8254 78.9052 89.5005L79.328 90.3229ZM81.4856 84.6958C81.8186 84.6792 82.6643 84.6525 83.2903 84.6525C84.7819 84.6525 85.3446 85.3185 85.3446 86.1975C85.359 86.4973 85.2812 86.7943 85.1216 87.0485C84.9621 87.3027 84.7285 87.5019 84.4523 87.6193V87.6359C84.7795 87.7063 85.0705 87.892 85.2722 88.1591C85.474 88.4262 85.5729 88.7569 85.551 89.091C85.551 90.3762 84.5522 90.9655 83.2203 90.9655C82.6476 90.9655 81.8452 90.9489 81.479 90.9222L81.4856 84.6958ZM82.5844 85.6947V87.2763H83.3269C83.8363 87.2763 84.2558 87.0166 84.2558 86.4439C84.2558 85.9345 83.8629 85.6681 83.257 85.6681C83.0205 85.6781 82.7808 85.6881 82.5844 85.7047V85.6947ZM82.5844 88.2319V89.8967C82.8242 89.9255 83.0654 89.9399 83.3069 89.94C84.0494 89.94 84.449 89.627 84.449 89.0377C84.449 88.5116 84.0461 88.2419 83.3602 88.2419L82.5844 88.2319ZM88.0649 84.6692H91.6842V85.6981H89.1637V87.253H91.4145V88.2819H89.1637V89.9H91.7707V90.9289H88.0649V84.6692ZM93.4921 84.6692H98.6464V85.6981H96.6186V90.9256H95.5199V85.7047H93.4921V84.6692ZM103.914 85.6981H102.093L101.966 86.8767C101.6 90.5127 100.787 91.1021 99.5553 90.9222L99.582 89.8335C100.065 89.8967 100.697 89.6903 100.974 85.9211L101.064 84.6692H105.003V90.9322H103.914V85.6981ZM108.908 86.8135C109.139 86.7842 109.371 86.7698 109.604 86.7702C111.149 86.7702 111.892 87.566 111.892 88.7879C111.892 90.1198 110.963 90.9422 109.364 90.9422C108.775 90.9422 108.176 90.9256 107.809 90.9256V84.6792H108.908V86.8135ZM108.908 87.8423V89.9C109.105 89.9 109.284 89.9267 109.498 89.9267C110.3 89.9267 110.729 89.5604 110.729 88.8279C110.729 88.162 110.283 87.809 109.514 87.809C109.311 87.8118 109.107 87.8251 108.905 87.849L108.908 87.8423ZM112.704 84.6725H113.793V90.9322H112.701L112.704 84.6725ZM116.593 90.9256V84.6792H117.692V89.1276L120.971 84.6792H121.937V90.9322H120.825V86.4905L117.545 90.9289L116.593 90.9256ZM118.611 83.1542C118.684 83.4872 118.924 83.6736 119.37 83.6736C119.816 83.6736 120.036 83.5404 120.086 83.1542H121.111C121.085 83.9234 120.352 84.4328 119.37 84.4328C118.298 84.4328 117.645 83.9134 117.585 83.1542H118.611ZM127.697 84.6725H128.816L130.95 87.5926L132.988 84.6725H134.023V90.9322H132.935V86.4106L130.96 89.1875H130.8L128.803 86.4372V90.9322H127.704L127.697 84.6725ZM136.807 90.9322V84.6792H137.906V89.1276L141.185 84.6792H142.151V90.9322H141.052V86.4905L137.773 90.9289L136.807 90.9322ZM144.951 90.9322V84.6792C145.284 84.6792 146.283 84.6625 146.729 84.6625C148.57 84.6625 149.15 85.6614 149.15 86.6603C149.15 87.6592 148.354 88.6881 146.862 88.6881C146.676 88.6881 146.316 88.6881 146.05 88.6614V90.9222L144.951 90.9322ZM146.05 85.7047V87.6259C146.308 87.6534 146.567 87.6678 146.826 87.6692C147.492 87.6692 147.988 87.3562 147.988 86.6703C147.988 85.9844 147.585 85.6981 146.836 85.6981C146.619 85.6881 146.35 85.6947 146.057 85.7047H146.05Z" fill="#A4D55D"/>
</g>
<defs>
<clipPath id="clip0">
<rect width="223" height="165" fill="white"/>
</clipPath>
</defs>
</svg>
