<svg width="39" height="39" viewBox="0 0 39 39" fill="none" xmlns="http://www.w3.org/2000/svg">
<path d="M24.9841 4.97009H22.699V8.93103H24.9841V4.97009Z" fill="#E3CEA3"/>
<path d="M29.5547 4.97009H27.2695V8.93103H29.5547V4.97009Z" fill="#E3CEA3"/>
<path d="M20.4133 4.97009H18.1282V8.93103H20.4133V4.97009Z" fill="#E3CEA3"/>
<path d="M24.9841 11.2163H22.699V15.1772H24.9841V11.2163Z" fill="#E3CEA3"/>
<path d="M29.5547 11.2163H27.2695V15.1772H29.5547V11.2163Z" fill="#E3CEA3"/>
<path d="M20.4133 11.2163H18.1282V15.1772H20.4133V11.2163Z" fill="#E3CEA3"/>
<path d="M11.5012 12.8414H9.21606V16.0948H11.5012V12.8414Z" fill="#E3CEA3"/>
<path d="M11.5012 18.3801H9.21606V21.6334H11.5012V18.3801Z" fill="#E3CEA3"/>
<path d="M11.5012 23.9187H9.21606V27.1721H11.5012V23.9187Z" fill="#E3CEA3"/>
<path d="M11.5012 29.4574H9.21606V32.7107H11.5012V29.4574Z" fill="#E3CEA3"/>
<path d="M24.9841 17.4625H22.699V21.4235H24.9841V17.4625Z" fill="#E3CEA3"/>
<path d="M29.5547 17.4625H27.2695V21.4235H29.5547V17.4625Z" fill="#E3CEA3"/>
<path d="M20.4133 17.4625H18.1282V21.4235H20.4133V17.4625Z" fill="#E3CEA3"/>
<path d="M24.9841 23.7087H22.699V27.6697H24.9841V23.7087Z" fill="#E3CEA3"/>
<path d="M29.5547 23.7087H27.2695V27.6697H29.5547V23.7087Z" fill="#E3CEA3"/>
<path d="M20.4133 23.7087H18.1282V27.6697H20.4133V23.7087Z" fill="#E3CEA3"/>
<path d="M29.5547 29.955H27.2695V33.9159H29.5547V29.955Z" fill="#E3CEA3"/>
<path d="M20.4133 29.955H18.1282V33.9159H20.4133V29.955Z" fill="#E3CEA3"/>
<path d="M34.1253 36.6962V0.0186768H13.5578V8.21104H4.8747V36.6961H0V38.9813H39V36.6961H34.1253V36.6962ZM31.8401 2.30383V36.6962H24.9841V29.9551H22.6989V36.6962H15.8429V2.30383H31.8401ZM7.15985 10.4962H13.5578V36.6961H7.15985V10.4962Z" fill="#E3CEA3"/>
</svg>
