<svg width="14" height="15" viewBox="0 0 14 15" fill="none" xmlns="http://www.w3.org/2000/svg">
<path fill-rule="evenodd" clip-rule="evenodd" d="M7.04225 0C6.27183 0 5.6338 0.473725 5.6338 1.04575V2.23895C3.21268 2.70849 1.40845 4.33464 1.40845 6.27451V10.4408C1.40845 10.4408 1.38592 10.7315 1.2 11.0013C1.01268 11.2742 0.787324 11.5033 0 11.5033V12.549H14.0845V11.5033C13.2479 11.5033 13.0338 11.2742 12.8577 11.0128C12.6817 10.7472 12.6761 10.4617 12.6761 10.4617V6.27451C12.6761 4.33464 10.8718 2.70849 8.4507 2.23895V1.04575C8.4507 0.473725 7.81267 0 7.04225 0ZM7.04239 12.5488C6.26628 12.5488 5.63385 13.0183 5.63385 13.5945C5.63385 14.1707 6.26628 14.6403 7.04239 14.6403C7.81849 14.6403 8.45093 14.1707 8.45093 13.5945C8.45093 13.0183 7.81849 12.5488 7.04239 12.5488ZM7.04218 3.13708C9.38587 3.13708 11.2676 4.53421 11.2676 6.27435V10.4532C11.2676 10.4532 11.2507 10.952 11.5972 11.4707C11.6028 11.4822 11.6141 11.4906 11.6197 11.5031H2.43228C2.43651 11.4947 2.44777 11.4864 2.45341 11.4822C2.80552 10.9677 2.81679 10.4741 2.81679 10.4741V6.27435C2.81679 4.53421 4.6985 3.13708 7.04218 3.13708Z" fill="white"/>
</svg>
