<svg width="18" height="18" viewBox="0 0 18 18" fill="none" xmlns="http://www.w3.org/2000/svg">
<path d="M13.9339 11.0274C13.586 10.6656 13.1663 10.4722 12.7215 10.4722C12.2803 10.4722 11.857 10.662 11.4948 11.0238L10.3613 12.1521C10.268 12.1019 10.1748 12.0554 10.0851 12.0088C9.95596 11.9443 9.834 11.8834 9.72998 11.819C8.66824 11.1456 7.70334 10.2681 6.7779 9.13264C6.32953 8.56672 6.02823 8.09035 5.80942 7.60681C6.10355 7.33818 6.37616 7.0588 6.6416 6.79017C6.74204 6.68988 6.84247 6.58601 6.9429 6.48572C7.69617 5.73355 7.69617 4.75932 6.9429 4.00715L5.96366 3.02933C5.85247 2.91829 5.73768 2.80368 5.63007 2.68906C5.41486 2.46699 5.18888 2.23776 4.95573 2.02286C4.60779 1.67901 4.1917 1.49634 3.75409 1.49634C3.31648 1.49634 2.89322 1.67901 2.53452 2.02286C2.53094 2.02644 2.53094 2.02644 2.52735 2.03002L1.30778 3.25856C0.848648 3.71703 0.5868 4.27578 0.529408 4.92408C0.443321 5.96995 0.7518 6.94419 0.98854 7.58174C1.56963 9.14697 2.43767 10.5976 3.73257 12.1521C5.30366 14.0253 7.19399 15.5046 9.35335 16.5469C10.1783 16.9373 11.2795 17.3993 12.5099 17.4781C12.5852 17.4817 12.6641 17.4853 12.7359 17.4853C13.5644 17.4853 14.2603 17.188 14.8055 16.597C14.8091 16.5899 14.8163 16.5863 14.8199 16.5791C15.0064 16.3535 15.2216 16.1493 15.4476 15.9308C15.6018 15.784 15.7597 15.6299 15.9139 15.4688C16.269 15.0998 16.4555 14.67 16.4555 14.2295C16.4555 13.7853 16.2654 13.3591 15.9031 13.0009L13.9339 11.0274ZM15.218 14.799C15.2145 14.799 15.2145 14.8026 15.218 14.799C15.0781 14.9494 14.9347 15.0855 14.7804 15.236C14.5473 15.458 14.3105 15.6908 14.0881 15.9523C13.7259 16.3391 13.299 16.5218 12.7394 16.5218C12.6856 16.5218 12.6282 16.5218 12.5744 16.5182C11.5091 16.4502 10.5191 16.0347 9.77661 15.6801C7.74639 14.6987 5.96366 13.3054 4.48225 11.5396C3.25909 10.0675 2.44126 8.70641 1.89963 7.24506C1.56604 6.3532 1.44408 5.65834 1.49789 5.00288C1.53376 4.58381 1.69517 4.23638 1.99289 3.9391L3.21605 2.71772C3.39181 2.55296 3.57833 2.46341 3.76127 2.46341C3.98724 2.46341 4.17018 2.59952 4.28496 2.71413C4.28855 2.71772 4.29214 2.7213 4.29572 2.72488C4.51453 2.92904 4.72257 3.14036 4.94138 3.36601C5.05257 3.48063 5.16736 3.59525 5.28214 3.71344L6.26138 4.69126C6.6416 5.07093 6.6416 5.42194 6.26138 5.80161C6.15736 5.90548 6.05692 6.00935 5.9529 6.10964C5.6516 6.41767 5.36464 6.70421 5.05257 6.98359C5.0454 6.99075 5.03823 6.99433 5.03464 7.0015C4.72616 7.30953 4.78355 7.61039 4.84812 7.81455C4.8517 7.8253 4.85529 7.83604 4.85888 7.84679C5.11355 8.46285 5.47225 9.0431 6.01747 9.73438L6.02105 9.73796C7.01106 10.9558 8.05487 11.9049 9.20628 12.632C9.35335 12.7251 9.504 12.8004 9.64748 12.872C9.77661 12.9365 9.89857 12.9974 10.0026 13.0618C10.0169 13.069 10.0313 13.0797 10.0456 13.0869C10.1676 13.1478 10.2824 13.1764 10.4007 13.1764C10.6985 13.1764 10.885 12.9902 10.946 12.9293L12.1727 11.7043C12.2947 11.5826 12.4884 11.4357 12.7143 11.4357C12.9367 11.4357 13.1197 11.5754 13.2309 11.6972C13.2344 11.7008 13.2344 11.7008 13.238 11.7043L15.2145 13.6779C15.5839 14.0432 15.5839 14.4193 15.218 14.799Z" fill="white"/>
<path d="M9.68668 4.55151C10.6265 4.7091 11.4802 5.15324 12.1617 5.83377C12.8432 6.51431 13.2844 7.36677 13.4458 8.30518C13.4853 8.54158 13.6897 8.70634 13.9229 8.70634C13.9516 8.70634 13.9767 8.70276 14.0054 8.69918C14.2708 8.6562 14.4466 8.40547 14.4035 8.14042C14.2098 7.00501 13.6718 5.96988 12.8504 5.14966C12.029 4.32944 10.9923 3.79217 9.85527 3.59876C9.58983 3.55578 9.34233 3.73128 9.2957 3.99275C9.24907 4.25422 9.42124 4.50852 9.68668 4.55151Z" fill="white"/>
<path d="M17.4778 8.00073C17.1586 6.13105 16.2762 4.42972 14.9203 3.07581C13.5644 1.72191 11.8606 0.840796 9.98824 0.52202C9.72639 0.475457 9.47889 0.654545 9.43226 0.916013C9.38922 1.18106 9.56498 1.4282 9.83041 1.47477C11.5019 1.75773 13.0264 2.54929 14.2388 3.75635C15.4512 4.96698 16.2403 6.48922 16.5237 8.15832C16.5632 8.39472 16.7676 8.55948 17.0008 8.55948C17.0295 8.55948 17.0546 8.5559 17.0833 8.55232C17.3451 8.51292 17.5245 8.26219 17.4778 8.00073Z" fill="white"/>
</svg>
